<svg width="625" height="49" viewBox="0 0 625 49" fill="none" xmlns="http://www.w3.org/2000/svg">
<path d="M43.4686 47.732C43.1559 47.9107 42.8209 48 42.4636 48H4.20657C3.80457 48 3.49191 47.9107 3.26857 47.732H2.86657C2.73257 47.6427 2.59857 47.5533 2.46457 47.464C2.37524 47.33 2.28591 47.196 2.19657 47.062H1.66057L1.52657 46.727H1.39257C1.39257 46.6377 1.37024 46.5483 1.32557 46.459C1.32557 46.3697 1.32557 46.2803 1.32557 46.191V44.717H2.33057V44.382H1.86157V43.042H1.66057V42.707H2.12957V41.367H1.99557V40.027H1.72757V39.357H1.99557V37.682H2.86657V36.677H2.79957V36.543C2.79957 36.3643 2.79957 36.208 2.79957 36.074C2.84424 35.94 2.88891 35.806 2.93357 35.672H1.92857C1.97324 35.538 2.01791 35.4263 2.06257 35.337C2.10724 35.203 2.15191 35.0913 2.19657 35.002H2.39757C2.48691 34.8233 2.55391 34.7117 2.59857 34.667H1.45957C1.54891 34.5777 1.61591 34.4883 1.66057 34.399C1.74991 34.3097 1.81691 34.2427 1.86157 34.198L2.39757 33.662H3.67057L4.34057 32.992H3.67057L4.94357 31.652H4.20657L4.87657 30.982H6.08257L6.75257 30.312H8.49457L9.43257 29.307H8.89657L9.56657 28.637H8.76257L9.09757 28.302H10.7726L11.0406 27.967H9.36557L10.3706 26.962H10.7056L11.0406 26.627H9.70057L10.9736 25.287H12.3136L13.3186 24.282L14.5916 22.942H13.8546L14.4576 22.272H15.6636L16.9366 20.932H16.5346L17.8076 19.592H18.4776L19.1476 18.922H18.2766L18.6116 18.587H18.4776L18.8126 18.252H17.9416L18.2766 17.917H19.3486L20.6216 16.577H19.4826L20.1526 15.907H20.2196L21.1576 14.902H21.5596L21.7606 14.701H4.47457C4.07257 14.701 3.67057 14.5447 3.26857 14.232H3.80457C3.62591 14.0533 3.46957 13.83 3.33557 13.562H3.20157C3.11224 13.294 3.06757 13.0707 3.06757 12.892V12.222H3.46957V11.552H2.86657V10.212H1.99557V9.207H2.59857V7.867H2.79957V7.532H0.856574V6.192H2.59857V4.852H2.66557V3.512H1.66057V2.842H5.41257C5.41257 2.66333 5.45724 2.44 5.54657 2.172H4.47457C4.51924 2.038 4.58624 1.92633 4.67557 1.837C4.76491 1.703 4.85424 1.59133 4.94357 1.502H3.53657C3.89391 1.234 4.27357 1.1 4.67557 1.1H41.3916C41.8829 1.1 42.2626 1.234 42.5306 1.502H44.0046C44.1832 1.68066 44.3396 1.904 44.4736 2.172H45.6126C45.7019 2.44 45.7466 2.66333 45.7466 2.842H41.9946V3.512H42.9996V4.852H42.9326V6.192H41.1906V7.532H43.1336V7.867H42.9326V9.207H42.3296V10.212H43.2006V11.552H43.8036V12.222H43.4016V12.423C43.4016 12.825 43.3346 13.2047 43.2006 13.562H43.4016C43.3569 13.696 43.2899 13.83 43.2006 13.964C43.1559 14.0533 43.0889 14.1427 42.9996 14.232H42.4636C42.4189 14.3213 42.3072 14.4553 42.1286 14.634L41.8606 14.902H41.4586L40.5876 15.907H40.5206L39.9176 16.577H41.0566L39.7836 17.917H38.7786L38.4436 18.252H39.3146L38.9796 18.587H39.1136L38.8456 18.922H39.7166L39.1136 19.592H38.4436L37.2376 20.932H37.6396L36.4336 22.272H35.2276L34.6246 22.942H35.3616L34.1556 24.282L33.2176 25.287H31.9446L30.7386 26.627H32.0116L31.7436 26.962H31.3416L30.4706 27.967H32.1456L31.8106 28.302H30.2026L29.8676 28.637H30.6716L30.0686 29.307H30.6046L29.6666 30.312H27.9246L27.3216 30.982H26.1156L25.5126 31.652H26.2496L25.0436 32.992H25.7136L25.1106 33.662H23.7706L23.2346 34.265H40.9226C41.4139 34.265 41.7936 34.399 42.0616 34.667H43.2006C43.3346 34.7563 43.4462 34.868 43.5356 35.002H43.4016C43.4909 35.1807 43.5802 35.404 43.6696 35.672H44.6746V36.677H44.7416V37.682H43.8706V39.357H43.6026V40.027H43.8706V41.367H44.0046V42.707H43.5356V43.042H43.7366V44.382H44.2056V44.717H43.2006V46.191C43.2006 46.4143 43.1782 46.593 43.1336 46.727H43.2676L43.1336 47.062H43.6696C43.5802 47.196 43.4686 47.33 43.3346 47.464C43.2452 47.5533 43.1336 47.6427 42.9996 47.732H43.4686ZM98.1647 36.342H103.458V37.347H93.2737V38.687H99.8397V40.027H94.0777V41.367H94.8147V42.372H94.3457V43.042H92.9387V43.712H92.8717V44.382H94.2787V45.722H96.2217V46.191C96.2217 46.2803 96.1993 46.3473 96.1547 46.392H84.2287C84.184 46.4813 84.1617 46.593 84.1617 46.727H88.7847C88.6507 47.1737 88.405 47.5087 88.0477 47.732H86.7747C86.5513 47.9107 86.2387 48 85.8367 48H50.9297C50.5723 48 50.2373 47.9107 49.9247 47.732H51.1977C50.885 47.5087 50.6393 47.1737 50.4607 46.727H45.7707C45.726 46.6377 45.7037 46.526 45.7037 46.392H57.6967V45.722H55.7537V44.382H54.3467V43.712H54.4137V43.042H55.8207V42.372H56.2897V41.367H55.5527V40.027H61.3147V38.687H54.7487V37.347H64.9327V36.342H59.6397V35.672H61.1807V35.002H61.8507V34.332H54.4137V33.662H52.6717V32.657H58.9027V32.322H53.9447V31.652H55.4187V30.982H56.4907V29.977H56.3567V28.637H55.6867V27.297H54.6817V26.627H55.4857V25.287H54.7487V24.617H55.8207V23.612H56.0887V22.607H57.2947V22.272H56.1557V20.932H55.1507V19.927H55.4187V18.922H55.5527V17.582H56.5577V16.242H55.0837V14.902H55.2847V13.562H57.1607V12.557H56.1557V11.552H55.6197V11.217H58.4337V10.212H63.3917V9.542H61.3817V8.872H54.8827V8.537H55.6197V7.532H55.6867V6.527H55.8877V5.187H55.8207V3.512H55.6867V2.909C55.6867 2.73033 55.709 2.59633 55.7537 2.507H55.0837C55.2623 1.569 55.843 1.1 56.8257 1.1H91.1967C92.224 1.1 92.8047 1.569 92.9387 2.507H93.6087C93.6533 2.59633 93.6757 2.73033 93.6757 2.909V3.512H93.8097V5.187H93.8767V6.527H93.6757V7.532H93.6087V8.537H92.8717V8.872H99.3707V9.542H101.381V10.212H96.4227V11.217H93.6087V11.552H94.1447V12.557H95.1497C95.0603 13.0037 94.904 13.3387 94.6807 13.562H92.8047C92.492 13.964 92.0453 14.165 91.4647 14.165H71.3647V14.902H71.1637V16.242H72.6377V17.582H71.6327V18.386H90.2587C90.75 18.386 91.1743 18.5647 91.5317 18.922H91.3977C91.621 19.1453 91.7773 19.4803 91.8667 19.927H91.6657V20.932H92.6707V22.272H93.8097V22.607H92.6037V23.612H92.3357V24.617H91.2637V25.287H92.0007V26.627H91.1967V27.297H92.2017V28.637H92.8717V28.905C92.8717 29.3963 92.76 29.7537 92.5367 29.977H92.6707C92.3133 30.4683 91.822 30.714 91.1967 30.714H72.5707V30.982H71.4987V31.652H70.0247V32.322H74.9827V32.657H68.7517V33.662H70.4937V34.332H77.9307V34.935H98.5667C98.79 34.935 98.9687 34.9573 99.1027 35.002H98.3657C98.8123 35.136 99.1473 35.3593 99.3707 35.672H97.8297C98.0083 35.94 98.12 36.1633 98.1647 36.342ZM151.63 41.367H145.801L145.131 42.372H150.625L150.022 43.042H145.466L145.131 43.377H145.734C145.198 43.913 144.662 44.3597 144.126 44.717H145.198C144.885 44.9403 144.528 45.1637 144.126 45.387H143.791L143.188 45.722H143.322C143.233 45.7667 143.121 45.8113 142.987 45.856C142.853 45.9007 142.741 45.9677 142.652 46.057H142.451C142.004 46.2357 141.535 46.4143 141.044 46.593C140.553 46.7717 140.039 46.928 139.503 47.062H139.637C139.056 47.196 138.476 47.33 137.895 47.464C137.314 47.5533 136.711 47.6427 136.086 47.732H136.287C135.572 47.8213 134.813 47.8883 134.009 47.933C133.25 47.9777 132.446 48 131.597 48H108.683C108.281 48 107.968 47.9107 107.745 47.732H107.477C107.254 47.598 107.053 47.3747 106.874 47.062H106.74C106.606 46.794 106.539 46.5037 106.539 46.191V46.057H106.74V45.722H106.606V45.387H106.941V44.717H105.869V43.377H105.266V43.042H109.822V42.372H104.261V41.367H110.09V40.027H105.266V39.692H105.199V39.022H108.75V38.352H106.271V37.682H108.482V36.677H106.539V35.672H107.745V35.337H106.74V33.327H106.271V32.657H106.606V31.652H106.204V30.647H105.065V29.977H103.658V29.307H107.209V28.972H102.452V28.637H106.941V28.302H105.735V27.967H106.472V27.297H106.003V26.292H106.07V25.287H106.338V24.952H106.539V24.282H108.147V22.942H109.219V21.937H106.74V20.597H106.271V19.927H105.467V18.922H106.539V17.582H104.797V17.247H106.673V16.912H108.951V16.242H109.956V15.907H104.864V14.902H106.74V13.897H106.472V13.227H106.539V12.557H106.338V11.552H106.204V11.217H107.343V10.882H105.199V9.877H105.936V9.542H106.204V7.867H106.539V7.532H102.787V7.197H104.462V6.192H108.214V5.187H102.586V4.852H104.395V4.182H104.864V2.842H104.73C104.73 2.48466 104.842 2.14966 105.065 1.837H107.477C107.834 1.34566 108.303 1.1 108.884 1.1H131.128C132.602 1.1 133.964 1.167 135.215 1.301C136.51 1.435 137.716 1.61367 138.833 1.837H136.488C137.069 1.971 137.627 2.12733 138.163 2.306C138.744 2.44 139.257 2.61867 139.704 2.842H139.838C140.329 3.02067 140.776 3.22167 141.178 3.445C141.58 3.66833 141.982 3.914 142.384 4.182H141.915C142.094 4.27133 142.25 4.383 142.384 4.517C142.563 4.651 142.719 4.76266 142.853 4.852H141.044L141.446 5.187H147.074C147.253 5.36566 147.409 5.54433 147.543 5.723C147.722 5.857 147.878 6.01333 148.012 6.192H144.26C144.394 6.37067 144.528 6.54933 144.662 6.728C144.796 6.862 144.908 7.01833 144.997 7.197H143.322L143.523 7.532H147.275L147.476 7.867H147.141C147.275 8.09033 147.387 8.31366 147.476 8.537C147.565 8.71566 147.655 8.89433 147.744 9.073C147.833 9.207 147.9 9.36333 147.945 9.542H147.61L147.744 9.877H147.007C147.096 10.0557 147.163 10.2343 147.208 10.413C147.253 10.547 147.297 10.7033 147.342 10.882H149.486C149.486 10.9267 149.486 10.9713 149.486 11.016C149.531 11.0607 149.553 11.1277 149.553 11.217H148.414C148.459 11.3063 148.481 11.418 148.481 11.552H148.615L148.816 12.557H149.017C149.017 12.6463 149.017 12.758 149.017 12.892C149.017 13.026 149.039 13.1377 149.084 13.227C149.084 13.3163 149.084 13.428 149.084 13.562C149.084 13.696 149.106 13.8077 149.151 13.897H149.084C149.129 14.0757 149.151 14.2543 149.151 14.433C149.151 14.567 149.151 14.7233 149.151 14.902H148.548V15.17C148.548 15.304 148.526 15.438 148.481 15.572C148.481 15.6613 148.481 15.773 148.481 15.907H149.687C149.687 15.9517 149.665 15.9963 149.62 16.041C149.62 16.0857 149.62 16.1527 149.62 16.242H148.883L148.816 16.912H149.821C149.821 17.046 149.799 17.1577 149.754 17.247H148.883C148.838 17.3363 148.816 17.448 148.816 17.582C148.682 17.984 148.503 18.4307 148.28 18.922H147.208L146.672 19.927H147.476C147.387 20.0163 147.297 20.128 147.208 20.262C147.163 20.396 147.096 20.5077 147.007 20.597H147.409C147.052 21.133 146.65 21.5797 146.203 21.937H148.749C148.302 22.3837 147.878 22.7187 147.476 22.942H146.404C146.091 23.21 145.756 23.411 145.399 23.545C145.622 23.6343 145.846 23.746 146.069 23.88C146.337 24.014 146.583 24.148 146.806 24.282H145.198C145.466 24.4607 145.779 24.684 146.136 24.952H145.935L146.337 25.287H146.069L147.074 26.292H147.007C147.141 26.4707 147.275 26.6493 147.409 26.828C147.543 26.962 147.655 27.1183 147.744 27.297H148.213L148.615 27.967H147.878L148.079 28.302H149.285C149.285 28.3467 149.33 28.4583 149.419 28.637H144.93L145.131 28.972H149.888C149.888 29.0167 149.933 29.1283 150.022 29.307H146.471C146.56 29.3963 146.605 29.508 146.605 29.642C146.65 29.776 146.694 29.8877 146.739 29.977H149.218L149.419 30.647H149.754L149.955 31.652H149.888C149.933 31.8307 149.955 32.0093 149.955 32.188C150 32.322 150.022 32.4783 150.022 32.657H149.955V33.327H149.888V33.997H150.156C150.156 34.2203 150.134 34.4437 150.089 34.667C150.089 34.8903 150.067 35.1137 150.022 35.337H151.965C151.965 35.3817 151.943 35.4263 151.898 35.471C151.898 35.5157 151.898 35.5827 151.898 35.672H150.022C149.977 35.8507 149.955 36.0293 149.955 36.208C149.955 36.342 149.933 36.4983 149.888 36.677H151.764L151.563 37.682H149.352L149.151 38.352H151.697L151.429 39.022H147.878C147.833 39.1113 147.789 39.223 147.744 39.357C147.744 39.491 147.699 39.6027 147.61 39.692H147.677C147.677 39.7367 147.632 39.8483 147.543 40.027H152.367C152.188 40.4737 151.943 40.9203 151.63 41.367ZM121.547 17.247V17.582H123.289V18.721H128.917C129.944 18.721 130.681 18.3413 131.128 17.582L131.329 17.247H132.2L132.334 16.912H131.262L131.463 16.242H132.2V15.907H130.994C131.039 15.8623 131.061 15.7953 131.061 15.706C131.061 15.572 131.039 15.438 130.994 15.304C130.994 15.17 130.972 15.036 130.927 14.902H131.597C131.552 14.5447 131.418 14.2097 131.195 13.897C131.15 13.763 131.061 13.6513 130.927 13.562C130.838 13.428 130.748 13.3163 130.659 13.227C130.436 13.0483 130.168 12.9143 129.855 12.825C129.587 12.691 129.274 12.624 128.917 12.624H123.289V13.227H123.222V13.897H123.49V14.902H121.614V15.907H126.706V16.242H125.701V16.912H123.423V17.247H121.547ZM123.49 35.337H124.495V35.672H123.289V36.476H129.52C130.011 36.476 130.413 36.409 130.726 36.275C131.083 36.0963 131.396 35.8953 131.664 35.672H133.54C133.585 35.5827 133.629 35.5157 133.674 35.471C133.719 35.4263 133.763 35.3817 133.808 35.337H131.932C132.2 34.935 132.401 34.4883 132.535 33.997H132.267C132.312 33.9077 132.334 33.796 132.334 33.662C132.334 33.528 132.334 33.4163 132.334 33.327H132.401V32.657H132.468C132.423 32.4783 132.379 32.322 132.334 32.188C132.289 32.0093 132.222 31.8307 132.133 31.652H132.2C131.977 31.2053 131.731 30.8703 131.463 30.647H131.128C130.815 30.3343 130.369 30.111 129.788 29.977H127.309C127.175 29.9323 126.952 29.91 126.639 29.91H120.408V29.977H121.815V30.647H122.954V31.652H123.356V32.657H123.021V33.327H123.49V35.337ZM204.451 21.267H201.168C201.124 21.4457 201.079 21.6243 201.034 21.803C200.99 21.937 200.923 22.0933 200.833 22.272H202.709L202.508 22.942H200.9C200.766 23.344 200.588 23.7907 200.364 24.282H199.359C199.181 24.7287 198.935 25.1753 198.622 25.622H198.756C198.578 25.8453 198.421 26.0687 198.287 26.292C198.153 26.5153 197.997 26.7387 197.818 26.962H205.054L204.183 27.967H198.22C198.042 28.1903 197.818 28.4137 197.55 28.637C197.282 28.8603 197.037 29.0837 196.813 29.307H197.684C197.506 29.4857 197.282 29.6643 197.014 29.843C196.791 29.977 196.568 30.1333 196.344 30.312H198.555L198.287 30.513L198.89 31.652H197.282L198.019 32.992H198.22L198.421 33.327H198.354L199.024 34.667H199.694L200.096 35.337H194.937L195.473 36.342H200.163L200.565 37.012H199.091L199.627 38.017H206.26L206.997 39.357H202.575L203.111 40.362H201.034L202.106 42.372H202.575L202.977 43.042H202.776L202.977 43.377H199.828L200.565 44.717L200.699 45.052H198.622L198.957 45.789C199.091 45.9677 199.158 46.1687 199.158 46.392H200.565V46.526C200.565 47.0173 200.364 47.4193 199.962 47.732H201.771C201.548 47.9107 201.258 48 200.9 48H187.165C186.897 48 186.652 47.9777 186.428 47.933C186.25 47.8437 186.049 47.7767 185.825 47.732H184.016C183.659 47.5533 183.346 47.33 183.078 47.062C182.855 46.794 182.676 46.5707 182.542 46.392H181.202L181.068 46.191L180.599 45.052H182.743L182.542 44.717H176.177V45.052H172.76V46.392H178.187C178.098 47.0173 177.808 47.464 177.316 47.732H176.847C176.535 47.9107 176.2 48 175.842 48H162.71C162.308 48 161.996 47.9107 161.772 47.732H162.308C161.817 47.464 161.527 47.0173 161.437 46.392H156.077C156.077 46.3473 156.077 46.325 156.077 46.325C156.033 46.2803 156.01 46.2357 156.01 46.191V45.052H159.427V44.717H166.127V43.377H158.958V43.042H163.179V42.372H161.772V41.367H164.117V40.362H160.298V39.357H165.457V38.017H162.509V37.012H162.442V36.677H162.04V36.342H160.231V35.337H162.509V34.667H161.906V33.327H161.973V32.992H161.772V31.652H163.38V30.312H161.102V29.307H160.231V27.967H166.127V26.962H158.891V25.622H158.757V24.282H159.762V22.942H161.303V22.272H159.427V21.267H162.71V20.597H167.534V19.927H160.901V19.592H161.236V19.257H161.839V18.922H161.906V18.252H161.772V17.247H162.04V15.907H161.705V15.237H162.04V14.232H161.772V13.897H161.973V13.227H161.906V12.892H161.638V12.557H162.241V11.552H162.777V10.547H159.628V9.207H160.365V7.867H159.963V6.862H161.772V5.857H162.442V4.852H161.236V4.182H161.705V3.847H161.839V2.842H161.973C161.973 2.35066 162.174 1.904 162.576 1.502H166.194C166.462 1.234 166.842 1.1 167.333 1.1H187.165C189.086 1.1 190.873 1.234 192.525 1.502H188.974C190.761 1.77 192.458 2.21667 194.066 2.842H193.932C194.692 3.11 195.429 3.445 196.143 3.847H196.009L196.612 4.182H196.076C196.3 4.27133 196.478 4.383 196.612 4.517C196.791 4.651 196.97 4.76266 197.148 4.852H198.354C198.578 5.03066 198.801 5.20933 199.024 5.388C199.248 5.522 199.449 5.67833 199.627 5.857H198.957C199.181 6.03567 199.359 6.21433 199.493 6.393C199.672 6.527 199.851 6.68333 200.029 6.862H198.22C198.399 7.04067 198.555 7.21933 198.689 7.398C198.823 7.532 198.957 7.68833 199.091 7.867H199.426C199.784 8.31366 200.096 8.76033 200.364 9.207H199.694C199.828 9.38566 199.94 9.609 200.029 9.877C200.163 10.1003 200.297 10.3237 200.431 10.547H203.58L203.982 11.552H203.446C203.491 11.7307 203.536 11.9093 203.58 12.088C203.67 12.222 203.737 12.3783 203.781 12.557H203.111L203.245 12.892H203.513C203.558 12.9813 203.58 13.093 203.58 13.227L203.781 13.897H203.982C203.982 14.031 204.005 14.1427 204.049 14.232H204.116C204.161 14.4107 204.183 14.5893 204.183 14.768C204.228 14.902 204.25 15.0583 204.25 15.237H203.379C203.379 15.3263 203.379 15.438 203.379 15.572C203.379 15.706 203.402 15.8177 203.446 15.907H203.848C203.848 16.1303 203.848 16.3537 203.848 16.577C203.893 16.8003 203.915 17.0237 203.915 17.247V17.917H204.317V18.252H203.915V18.922H203.245C203.245 18.9667 203.223 19.0113 203.178 19.056C203.178 19.1007 203.178 19.1677 203.178 19.257H203.848C203.848 19.3017 203.826 19.3463 203.781 19.391C203.781 19.4357 203.781 19.5027 203.781 19.592H206.93C206.886 19.6813 206.863 19.793 206.863 19.927H207.734L207.667 20.597H204.585C204.496 20.865 204.451 21.0883 204.451 21.267ZM177.651 19.927H184.284V20.597H179.46V20.664H184.351C184.664 20.664 184.91 20.6417 185.088 20.597H188.17C188.662 20.463 189.108 20.2397 189.51 19.927H188.572L188.907 19.592H185.758C185.892 19.458 185.982 19.3463 186.026 19.257H185.356L185.557 18.922H186.227L186.428 18.252H186.763C186.808 18.1627 186.83 18.051 186.83 17.917H186.428L186.495 17.247C186.495 16.8003 186.428 16.3537 186.294 15.907H185.892C185.848 15.8177 185.803 15.706 185.758 15.572C185.758 15.438 185.714 15.3263 185.624 15.237H186.562C186.384 14.8797 186.138 14.5447 185.825 14.232H185.691C185.557 14.098 185.401 13.9863 185.222 13.897H185.021C184.575 13.6737 184.106 13.562 183.614 13.562H178.723V13.897H178.522V14.232H178.79V15.237H178.455V15.907H178.79V17.247H178.522V18.252H178.656V18.922H178.589V19.257H177.986V19.592H177.651V19.927ZM182.944 35.337L182.676 34.667H181.939L181.403 33.394H178.656V34.667H179.259V35.337H182.944ZM176.981 35.337V36.342H178.254L177.852 35.337H176.981ZM183.078 36.677L182.944 36.342H178.79V36.677H179.192V37.012H179.259V38.017H182.207V39.357H177.048V40.362H180.867V41.367H178.522V42.372H179.929V43.042H175.708V43.377H185.155L184.954 43.042H185.155L184.82 42.372H184.284L183.882 41.367L183.413 40.362H185.557L185.088 39.357H189.443L188.84 38.017H182.207L181.805 37.012H183.279L183.078 36.677ZM263.859 44.382L264.328 45.722H263.189L263.323 46.057C263.323 46.1017 263.323 46.1687 263.323 46.258C263.367 46.3027 263.39 46.3473 263.39 46.392H262.988V46.526C262.988 47.062 262.787 47.464 262.385 47.732H262.452C262.228 47.9107 261.938 48 261.581 48H249.186C248.873 48 248.605 47.9777 248.382 47.933C248.203 47.8437 248.002 47.7767 247.779 47.732C247.421 47.5533 247.153 47.3523 246.975 47.129C246.796 46.861 246.662 46.6153 246.573 46.392H246.908V46.325L246.774 46.057L246.64 45.722H247.779L247.31 44.382H246.037L245.836 43.712H248.583L248.114 42.372H247.31L247.109 41.903H232.704L232.57 42.372H231.766L231.297 43.712H230.56L230.292 44.382H229.89L229.421 45.722H229.488L229.354 46.057L229.287 46.325L229.22 46.392H228.885C228.795 46.6153 228.661 46.861 228.483 47.129C228.304 47.3523 228.036 47.5533 227.679 47.732H229.689C229.51 47.7767 229.309 47.8437 229.086 47.933C228.862 47.9777 228.594 48 228.282 48H215.887C215.529 48 215.261 47.9107 215.083 47.732H213.073C212.626 47.4193 212.403 47.0173 212.403 46.526V46.392H212.805C212.805 46.258 212.827 46.1463 212.872 46.057L212.939 45.722H212.872L213.341 44.382H213.743L214.011 43.712H214.748L215.217 42.372H215.954L216.423 41.032H213.81L214.078 40.362H213.877L214.212 39.357H214.882L215.016 39.022H213.542L214.011 37.682H216.289L216.49 37.012H214.413L214.547 36.677H214.882L215.351 35.337H215.15L215.485 34.332H215.753L216.222 32.992H217.093L217.428 31.987L217.562 31.652H220.912L221.046 31.317H220.845L221.18 30.312H217.428L217.897 28.972H219.103L219.237 28.637H218.5L218.634 28.302H220.778L221.247 26.962H218.634L218.902 26.292H219.907L220.376 24.952H219.773L220.108 23.947H220.845L221.314 22.607H221.113L221.247 22.272H219.706L219.974 21.602H221.448L221.783 20.597H221.113L221.18 20.262H222.386L222.855 18.922H221.381L221.716 17.917H220.979L221.18 17.247H216.557L216.758 16.577H215.887L216.356 15.237H215.485L215.887 14.232H218.5L218.969 12.892H225.669L226.004 11.887H222.788L223.056 11.217H225.535L226.004 9.877H223.793L224.128 8.872H225.535L226.004 7.532H225.803L226.272 6.192H224.396L224.463 5.857H230.895L231.364 4.517H231.163L231.297 4.182H228.952L229.22 3.311L229.421 2.842H230.091L230.493 2.172H230.292C230.515 1.85933 230.828 1.61366 231.23 1.435C231.632 1.21166 232.123 1.1 232.704 1.1H247.243C247.823 1.1 248.315 1.21166 248.717 1.435C249.119 1.61366 249.431 1.85933 249.655 2.172H249.923L250.325 2.842H249.655C249.744 3.02067 249.789 3.177 249.789 3.311L250.124 4.182H252.469L252.536 4.517H252.737L253.206 5.857H246.841L246.975 6.192H248.851L249.32 7.532H249.521L249.99 8.872H248.583L248.918 9.877H251.129L251.598 11.217H249.119L249.387 11.887H252.603L252.938 12.892H246.238L246.707 14.232H244.094L244.429 15.237H245.233L245.702 16.577H243.089L243.357 17.247H254.01L254.211 17.917H253.675L254.01 18.922H252.67L253.139 20.262H251.531L251.598 20.597H254.01L254.345 21.602H254.412L254.68 22.272H252.469L252.603 22.607H254.747L255.216 23.947H255.953L256.288 24.952H256.087L256.556 26.292H257.628L257.896 26.962H255.953L256.422 28.302H257.762L257.829 28.637H257.494L257.628 28.972H256.422L256.824 30.312H260.643L260.978 31.317H261.179L261.313 31.652H257.896L258.03 31.987H258.097L258.432 32.992H257.561L258.03 34.332H257.695L258.097 35.337H258.298L258.767 36.677H258.432L258.566 37.012H260.643L260.911 37.682H258.566L259.035 39.022H260.509L260.643 39.357H259.973L260.375 40.362H260.509L260.777 41.032H263.39L263.859 42.372H264.663L265.132 43.712H262.385L262.586 44.382H263.859ZM235.853 17.917H236.657L236.322 18.922H239.069L238.734 17.917H239.27L239.069 17.247H236.054L235.853 17.917ZM238.064 20.262L237.729 19.123L237.394 20.262H238.064ZM234.044 28.302L233.91 28.637H234.647L234.58 28.838H242.151L242.084 28.637H242.419L242.352 28.302H241.012L240.61 26.962H242.553L242.352 26.292H241.213L240.811 24.952H241.012L240.744 23.947H240.007L239.605 22.607H237.461L237.327 22.272H239.538L239.337 21.602H239.27L238.935 20.597H236.791L236.523 21.602H235.049L234.848 22.272H236.322L236.255 22.607H236.456L236.054 23.947H235.317L234.982 24.952H235.585L235.183 26.292H234.178L233.977 26.962H236.59L236.188 28.302H234.044ZM331.396 7.197H337.895L337.493 7.867H336.153L335.55 8.872H328.783L328.381 9.542H329.319L328.649 10.547H329.52L328.649 11.887H327.644L327.041 12.892H329.453L329.051 13.562H327.912L327.443 14.232H326.974L326.773 14.567H325.902L325.098 15.907H324.495L323.825 16.912H324.629L324.227 17.582H324.629L323.825 18.922H318.331L317.661 19.927H317.795L316.924 21.267H322.887L322.485 21.937H324.093L323.892 22.272H323.691L323.222 22.942H324.16L323.758 23.612H318.331L318.197 23.813L318.465 24.282H323.021L323.892 25.622H322.619L323.021 26.292H322.686L322.887 26.627H322.418L323.088 27.632H324.428L324.629 27.967H326.907L327.108 28.302H323.825L324.294 28.972H324.763L325.634 30.312H325.165L326.036 31.652H324.897L325.165 31.987L325.835 32.992H324.495L324.763 33.327H325.031L325.701 34.332H327.51L327.711 34.667H328.381L328.582 35.002H330.123L330.994 36.342H330.793L331.463 37.347H328.917L329.118 37.682H329.922L330.592 38.687H328.582L328.984 39.357H327.175L327.778 40.362H333.071L333.741 41.367H333.138L333.607 42.037H332.803L333.674 43.377H334.009L334.478 44.047H334.947L335.148 44.382H334.344L335.215 45.722H335.684L335.751 45.789C335.84 45.9677 335.885 46.124 335.885 46.258C335.93 46.3473 335.952 46.4367 335.952 46.526V46.727H335.416C335.327 47.129 335.126 47.464 334.813 47.732H334.679C334.456 47.9107 334.165 48 333.808 48H318.733C318.465 48 318.219 47.9777 317.996 47.933C317.817 47.8437 317.616 47.7767 317.393 47.732H317.527C316.991 47.5087 316.589 47.1737 316.321 46.727H316.857C316.812 46.6377 316.745 46.5483 316.656 46.459L316.187 45.722H315.651L314.78 44.382H315.651L315.45 44.047H314.914L314.512 43.377H314.11L313.239 42.037H314.043L313.641 41.367H314.244L313.574 40.362H308.281L307.611 39.357H309.487L309.018 38.687H311.095L310.425 37.682H309.621L309.487 37.481L309.353 37.682H308.884L308.281 38.687H306.338L305.936 39.357H307.276L306.606 40.362H305.802L305.199 41.367H307.544L307.142 42.037H307.477L306.673 43.377H307.611L307.142 44.047H305.869L305.668 44.382H305.936L305.065 45.722H305.199L304.73 46.459C304.64 46.5483 304.573 46.6377 304.529 46.727H304.06C303.792 47.1737 303.39 47.5087 302.854 47.732H302.586C302.407 47.7767 302.206 47.8437 301.983 47.933C301.759 47.9777 301.514 48 301.246 48H286.64C286.282 48 286.014 47.9107 285.836 47.732H286.037C285.724 47.464 285.523 47.129 285.434 46.727H285.903V46.526C285.903 46.4367 285.903 46.3473 285.903 46.258C285.947 46.124 286.014 45.9677 286.104 45.789L286.171 45.722H286.037L286.908 44.382H286.707L286.908 44.047H288.181L288.583 43.377H287.645L288.516 42.037H288.181L288.65 41.367H286.238L286.908 40.362H287.712L288.382 39.357H287.042L287.444 38.687H289.454L290.057 37.682H290.526L290.727 37.347H293.273L293.943 36.342H294.077L294.948 35.002H293.474L293.675 34.667H293.005L293.206 34.332H291.397L292.067 33.327H291.799L292 32.992H293.273L293.943 31.987H293.876L294.144 31.652H295.216L296.087 30.312H296.556L297.427 28.972H296.958L297.36 28.302H300.643L300.911 27.967H298.633L298.834 27.632H297.494L298.164 26.627H298.566L298.834 26.292H299.169L299.638 25.622H300.911L301.782 24.282H297.226L297.427 24.014L297.159 23.612H302.653L302.184 22.942H301.313L300.844 22.272H301.112L300.911 21.937H299.236L298.834 21.267H292.871L292.067 19.927H291.933L291.33 18.922H296.824L296.02 17.582H295.551L295.149 16.912H294.345L293.742 15.907H294.345L293.541 14.567H294.412L294.211 14.232H294.68L294.278 13.562H295.417L295.015 12.892H292.536L291.933 11.887H292.938L292.134 10.547H291.531L290.861 9.542H293.876L293.474 8.872H290.124L289.521 7.867H288.851L288.449 7.197H292.268L291.866 6.527H290.928L290.526 5.857H288.918L288.516 5.187H288.583L288.382 4.852H288.851L288.047 3.512H285.568L285.434 3.311C285.434 3.26633 285.434 3.244 285.434 3.244C285.389 3.244 285.367 3.22166 285.367 3.177H287.176C287.131 3.08767 287.086 2.99833 287.042 2.909C287.042 2.81967 287.042 2.708 287.042 2.574V2.507H287.109C287.198 2.06033 287.354 1.72533 287.578 1.502H287.042C287.31 1.234 287.645 1.1 288.047 1.1H302.586C302.898 1.1 303.189 1.14466 303.457 1.234C303.725 1.32333 303.948 1.41266 304.127 1.502H304.73C304.998 1.636 305.221 1.79233 305.4 1.971C305.578 2.14966 305.712 2.32833 305.802 2.507H305.735C305.824 2.68567 305.869 2.775 305.869 2.775L306.137 3.177H304.328L304.462 3.512H306.941L307.745 4.852H307.276L307.477 5.187H307.41L307.812 5.857H309.353L309.755 6.527H310.693L311.028 7.197H307.209L307.611 7.867H308.281L308.884 8.872H317.326L317.929 7.867H319.269L319.671 7.197H313.172L313.574 6.527H314.78L315.249 5.857H312.502L312.971 5.187H314.445L314.646 4.852H314.177L315.048 3.512H316.12L316.321 3.177H315.718L315.986 2.775C315.986 2.775 316.031 2.68567 316.12 2.507H316.321C316.41 2.32833 316.544 2.14966 316.723 1.971C316.901 1.79233 317.125 1.636 317.393 1.502H315.852C316.075 1.41266 316.321 1.32333 316.589 1.234C316.857 1.14466 317.147 1.1 317.46 1.1H331.329C331.776 1.1 332.088 1.234 332.267 1.502H333.808C334.121 1.81466 334.277 2.14966 334.277 2.507H334.143V2.574C334.143 2.842 334.098 3.043 334.009 3.177H334.612C334.612 3.22166 334.59 3.244 334.545 3.244C334.545 3.244 334.545 3.26633 334.545 3.311L334.411 3.512H333.339L332.468 4.852H332.87L332.669 5.187H331.195L330.793 5.857H333.473L333.071 6.527H331.865L331.396 7.197ZM309.554 9.542L310.157 10.547H310.425L311.028 9.542H309.554ZM311.028 10.949L311.229 10.547H310.76L311.028 10.949ZM412.319 35.002H422.704C422.659 35.0913 422.637 35.203 422.637 35.337C422.637 35.471 422.614 35.5827 422.57 35.672C422.57 35.806 422.547 35.9177 422.503 36.007H416.339L416.138 36.677H404.614L404.413 37.347H412.654C412.609 37.4363 412.564 37.548 412.52 37.682C412.52 37.816 412.475 37.9277 412.386 38.017H405.083L404.949 38.352H408.835C408.79 38.5307 408.723 38.7093 408.634 38.888C408.544 39.022 408.455 39.1783 408.366 39.357H403.676L403.475 39.692H404.815L404.614 40.027H392.554C392.375 40.2503 392.219 40.4737 392.085 40.697C391.951 40.9203 391.794 41.1437 391.616 41.367H395.636C395.457 41.635 395.278 41.8583 395.1 42.037H386.591L385.586 43.042H404.413C404.145 43.2653 403.877 43.4887 403.609 43.712C403.341 43.9353 403.05 44.1587 402.738 44.382H396.574C396.35 44.5607 396.105 44.7393 395.837 44.918C395.569 45.052 395.301 45.2083 395.033 45.387H384.715C384.536 45.521 384.313 45.655 384.045 45.789C383.821 45.8783 383.598 45.9677 383.375 46.057H387.663C387.395 46.191 387.127 46.325 386.859 46.459C386.591 46.5483 386.323 46.6377 386.055 46.727H394.363C393.38 47.129 392.308 47.464 391.147 47.732H385.452C384.871 47.866 384.268 47.9777 383.643 48.067C383.017 48.201 382.392 48.3127 381.767 48.402H379.69C378.975 48.4913 378.238 48.5583 377.479 48.603C376.719 48.6477 375.96 48.67 375.201 48.67C374.352 48.67 373.526 48.6477 372.722 48.603C371.962 48.5583 371.225 48.4913 370.511 48.402H372.521C371.851 48.3127 371.203 48.201 370.578 48.067C369.997 47.9777 369.416 47.866 368.836 47.732H374.531C373.414 47.464 372.342 47.129 371.315 46.727H363.074C362.806 46.6377 362.538 46.5483 362.27 46.459C362.002 46.325 361.756 46.191 361.533 46.057H357.312C357.088 45.9677 356.887 45.856 356.709 45.722C356.485 45.588 356.262 45.4763 356.039 45.387H366.357C366.044 45.2083 365.754 45.052 365.486 44.918C365.262 44.7393 365.017 44.5607 364.749 44.382H370.913C370.377 44.0247 369.841 43.578 369.305 43.042H350.478C350.076 42.6847 349.741 42.3497 349.473 42.037H357.982L357.379 41.367H353.359C353.18 41.1437 353.024 40.9203 352.89 40.697C352.711 40.4737 352.555 40.2503 352.421 40.027H364.548L364.347 39.692H363.007L362.806 39.357H367.496C367.406 39.1783 367.317 39.022 367.228 38.888C367.138 38.7093 367.049 38.5307 366.96 38.352H363.141C363.051 38.1733 363.007 38.0617 363.007 38.017H370.31L370.042 37.347H361.868L361.667 36.677H373.191C373.101 36.409 373.057 36.1857 373.057 36.007H379.288C379.243 35.9177 379.221 35.806 379.221 35.672H400.929C402.09 35.672 403.05 35.4487 403.81 35.002H393.492C393.581 34.9127 393.648 34.8457 393.693 34.801C393.782 34.7563 393.871 34.7117 393.961 34.667H389.405C389.494 34.7117 389.583 34.7563 389.673 34.801C389.762 34.8457 389.829 34.9127 389.874 35.002H373.459C373.861 35.1807 374.352 35.337 374.933 35.471C375.513 35.605 376.273 35.672 377.211 35.672H355.436C355.436 35.5827 355.436 35.471 355.436 35.337C355.436 35.203 355.413 35.0913 355.369 35.002H371.784V34.667H360.059C360.059 34.0417 360.394 33.595 361.064 33.327H368.635C368.724 33.2823 368.88 33.26 369.104 33.26H382.571C382.883 33.26 383.107 33.2823 383.241 33.327H393.76L393.894 32.992H388.802C388.846 32.858 388.869 32.724 388.869 32.59C388.869 32.4113 388.869 32.255 388.869 32.121V31.652H387.73C387.64 31.0713 387.439 30.6247 387.127 30.312H387.06L386.725 29.977H382.303C381.588 29.441 380.449 29.173 378.886 29.173H370.511C369.93 29.173 369.506 28.9943 369.238 28.637H374.531L374.33 28.302H373.526C373.347 28.0787 373.258 27.766 373.258 27.364V26.962H373.124V25.622H373.928V24.617H371.784V23.612H375.402V22.607H376.072V21.267H371.985L372.186 20.597H374.598L374.732 20.262H377.01L377.211 19.927H375.134C375.268 19.793 375.379 19.659 375.469 19.525C375.603 19.391 375.737 19.3017 375.871 19.257L376.474 18.922H375.536L377.948 17.582H377.546L378.752 16.912H378.618L379.824 16.242H379.556L382.035 14.902L382.638 14.567H382.303L383.04 14.165H365.419C365.017 14.165 364.704 14.0757 364.481 13.897H366.759C366.446 13.763 366.223 13.5397 366.089 13.227H363.543C363.453 13.0483 363.364 12.825 363.275 12.557H364.481V12.222H364.816V11.887H363.476V10.882H364.347V9.542H364.682V8.872H364.414V7.867H363.878V7.532H364.816V6.527H362.337V5.187H365.017V4.852H362.136V3.512H362.471V2.909C362.471 2.55166 362.515 2.306 362.605 2.172H364.95C365.352 1.45733 365.91 1.1 366.625 1.1H400.929C401.733 1.1 402.291 1.45733 402.604 2.172H400.192C400.326 2.35067 400.393 2.59633 400.393 2.909V3.512H400.058V4.852H402.939V5.187H400.259V6.527H402.738V7.532H401.8V7.867H402.336V8.872H402.604V9.542H402.269V10.882H401.398V11.887H402.671V12.222H402.269C402.269 12.2667 402.246 12.3113 402.202 12.356C402.202 12.4007 402.202 12.4677 402.202 12.557H400.996C400.951 12.7357 400.839 12.959 400.661 13.227H403.274C403.229 13.361 403.14 13.495 403.006 13.629C402.916 13.7183 402.827 13.8077 402.738 13.897H400.46C400.37 13.9417 400.281 14.0087 400.192 14.098L399.455 14.567H399.79L399.321 14.902L397.311 16.242H397.579L396.574 16.912H396.708L395.703 17.582H396.172L394.162 18.922H395.1L394.497 19.324V19.525L395.971 19.927H398.048C398.226 19.9717 398.383 20.0163 398.517 20.061C398.695 20.1057 398.874 20.1727 399.053 20.262H396.842C396.976 20.3067 397.11 20.3513 397.244 20.396C397.422 20.4407 397.579 20.5077 397.713 20.597H395.301C395.837 20.7757 396.35 20.999 396.842 21.267H400.929C401.643 21.6243 402.358 22.071 403.073 22.607H402.47L403.676 23.612H400.058C400.192 23.7907 400.326 23.9693 400.46 24.148C400.638 24.282 400.817 24.4383 400.996 24.617H403.14L403.877 25.622H403.073C403.385 26.0687 403.631 26.5153 403.81 26.962H403.944C404.167 27.4533 404.346 27.9 404.48 28.302H405.284L405.418 28.637H400.058C400.147 28.8157 400.214 29.039 400.259 29.307C400.303 29.5303 400.348 29.7537 400.393 29.977H404.748C404.792 30.0663 404.815 30.178 404.815 30.312H404.949C404.993 30.4907 405.016 30.714 405.016 30.982C405.06 31.2053 405.083 31.4287 405.083 31.652H406.222C406.266 31.8307 406.289 32.054 406.289 32.322C406.289 32.5453 406.289 32.7687 406.289 32.992H411.381V33.327H398.584C398.584 33.5503 398.561 33.7737 398.517 33.997C398.517 34.2203 398.517 34.4437 398.517 34.667H412.386C412.341 34.7563 412.319 34.868 412.319 35.002ZM377.68 34.667H380.092C380.494 34.265 380.784 33.8183 380.963 33.327H375.737C376.094 33.3717 376.384 33.5057 376.608 33.729C376.831 33.9077 377.054 34.1087 377.278 34.332L377.68 34.667ZM462.836 17.582V18.252H455.533C455.533 18.2967 455.533 18.3413 455.533 18.386C455.577 18.4307 455.6 18.4977 455.6 18.587H460.29V18.922H458.548C458.592 19.1007 458.615 19.324 458.615 19.592C458.615 19.8153 458.615 20.0387 458.615 20.262H458.414V21.267H455.399V22.272H458.146V23.277H458.883V24.282H458.682V25.287H456.337V26.627H459.888V27.967H456.471L456.404 28.637H457.811C457.811 28.8157 457.811 28.9943 457.811 29.173C457.811 29.307 457.788 29.4633 457.744 29.642H458.615C458.57 29.7313 458.548 29.843 458.548 29.977C458.548 30.111 458.548 30.2227 458.548 30.312H459.888V31.317H461.63V31.518C461.585 31.6967 461.563 31.8753 461.563 32.054C461.563 32.2327 461.54 32.4337 461.496 32.657H461.295L461.228 33.327H457.409C457.364 33.5503 457.319 33.7737 457.275 33.997C457.275 34.2203 457.23 34.4437 457.141 34.667H459.553L459.352 35.672H457.744L457.342 37.012H456.27L455.868 38.017H454.528C454.438 38.2403 454.327 38.4637 454.193 38.687C454.103 38.9103 453.992 39.1337 453.858 39.357H452.049C451.915 39.5803 451.781 39.8037 451.647 40.027C451.513 40.2503 451.379 40.4737 451.245 40.697H454.662C454.483 40.9203 454.304 41.1437 454.126 41.367C453.992 41.5903 453.835 41.8137 453.657 42.037H454.327L453.992 42.372H455.332L454.729 43.042H452.384L451.714 43.712H450.642C450.061 44.2033 449.48 44.65 448.9 45.052H444.411L442.736 46.057H448.565C447.805 46.459 447.046 46.794 446.287 47.062H448.297C447.716 47.2407 447.135 47.4193 446.555 47.598C445.974 47.7767 445.371 47.933 444.746 48.067H444.88C444.567 48.1117 444.232 48.1563 443.875 48.201C443.562 48.2903 443.227 48.3573 442.87 48.402H449.704C449.078 48.4913 448.408 48.5583 447.694 48.603C447.024 48.6477 446.309 48.67 445.55 48.67C444.835 48.67 444.12 48.6477 443.406 48.603C442.736 48.5583 442.088 48.4913 441.463 48.402H434.562C434.249 48.3573 433.914 48.2903 433.557 48.201C433.244 48.1563 432.909 48.1117 432.552 48.067H432.485C431.145 47.799 429.961 47.464 428.934 47.062H426.924C426.12 46.794 425.383 46.459 424.713 46.057H418.884C418.571 45.8783 418.258 45.722 417.946 45.588C417.678 45.4093 417.41 45.2307 417.142 45.052H421.631C421.05 44.65 420.469 44.2033 419.889 43.712H420.961L420.291 43.042H422.569L421.966 42.372H420.626C420.492 42.238 420.402 42.1263 420.358 42.037H419.688C419.33 41.6797 418.995 41.233 418.683 40.697H415.199C415.065 40.4737 414.931 40.2503 414.797 40.027C414.663 39.8037 414.529 39.5803 414.395 39.357H416.204C416.114 39.1337 416.003 38.9103 415.869 38.687C415.735 38.4637 415.623 38.2403 415.534 38.017H416.941C416.762 37.6597 416.628 37.3247 416.539 37.012H417.544L417.142 35.672H418.683C418.638 35.4933 418.593 35.337 418.549 35.203C418.504 35.0243 418.459 34.8457 418.415 34.667H419.085C419.04 34.4437 418.995 34.2203 418.951 33.997C418.951 33.7737 418.906 33.5503 418.817 33.327H416.204L416.137 32.657H415.199L415.065 31.518V31.317H419.085C419.04 31.1383 419.018 30.982 419.018 30.848C419.018 30.6693 419.018 30.4907 419.018 30.312H416.204L416.137 29.642H416.405C416.36 29.4633 416.338 29.307 416.338 29.173C416.338 28.9943 416.338 28.8157 416.338 28.637H415.601L415.534 27.967H415.467C415.467 27.7437 415.444 27.5203 415.4 27.297C415.4 27.0737 415.4 26.8503 415.4 26.627H415.132C415.132 26.4037 415.109 26.1803 415.065 25.957C415.065 25.7337 415.065 25.5103 415.065 25.287H415.467V24.282H416.606V23.277H415.869V22.272H415.668V21.267H412.921C412.965 21.0883 412.988 20.932 412.988 20.798C412.988 20.6193 412.988 20.4407 412.988 20.262H416.941V18.922H417.477C417.521 18.8327 417.544 18.721 417.544 18.587H422.569V18.252H418.482L418.549 17.582H417.008L417.075 17.314C417.075 17.0013 417.097 16.7557 417.142 16.577H416.338C416.382 16.3983 416.405 16.242 416.405 16.108C416.405 15.9293 416.427 15.7507 416.472 15.572H416.673C416.717 15.4827 416.74 15.371 416.74 15.237C416.74 15.103 416.762 14.9913 416.807 14.902H417.678C417.722 14.7233 417.767 14.567 417.812 14.433C417.856 14.2543 417.901 14.0757 417.946 13.897H413.859C413.948 13.7183 414.015 13.562 414.06 13.428C414.104 13.2493 414.149 13.0707 414.194 12.892H415.199L415.601 11.887H408.298L408.901 10.547H412.519L412.653 10.212H415.802C415.98 9.76533 416.226 9.31867 416.539 8.872H414.73L414.931 8.537H417.41C417.588 8.31366 417.745 8.09033 417.879 7.867C418.057 7.599 418.236 7.37567 418.415 7.197H420.425C420.514 7.10767 420.603 6.996 420.693 6.862C420.827 6.728 420.938 6.61633 421.028 6.527H421.229C421.363 6.43766 421.474 6.326 421.564 6.192C421.698 6.058 421.809 5.94633 421.899 5.857H421.631L422.837 4.852H422.971L424.378 3.847H424.445L425.651 3.177C425.74 3.08767 425.829 3.02067 425.919 2.976C426.053 2.93133 426.187 2.88666 426.321 2.842H424.981C425.07 2.75266 425.182 2.68566 425.316 2.641C425.45 2.59633 425.561 2.55166 425.651 2.507H426.321C426.589 2.373 426.857 2.26133 427.125 2.172C427.437 2.038 427.728 1.92633 427.996 1.837H428.532C428.71 1.74766 428.867 1.68066 429.001 1.636C429.179 1.59133 429.358 1.54667 429.537 1.502H429.403C429.626 1.41266 429.827 1.34566 430.006 1.301C430.229 1.25633 430.452 1.21166 430.676 1.167H430.81C431.837 0.943663 432.887 0.764997 433.959 0.630999C435.075 0.496998 436.237 0.429997 437.443 0.429997C439.721 0.429997 441.909 0.675664 444.009 1.167H443.875C444.098 1.21166 444.321 1.25633 444.545 1.301C444.768 1.34566 444.969 1.41266 445.148 1.502H445.349C445.527 1.54667 445.684 1.59133 445.818 1.636C445.996 1.68066 446.175 1.74766 446.354 1.837H445.885C446.197 1.92633 446.488 2.038 446.756 2.172C447.068 2.26133 447.359 2.373 447.627 2.507H446.957L447.694 2.842H449.034C449.123 2.88666 449.212 2.93133 449.302 2.976C449.436 3.02067 449.57 3.08767 449.704 3.177H449.637L450.843 3.847H450.709C450.977 4.02566 451.222 4.20433 451.446 4.383C451.714 4.517 451.959 4.67333 452.183 4.852H452.049C452.272 5.03066 452.473 5.20933 452.652 5.388C452.83 5.522 453.009 5.67833 453.188 5.857H453.456C453.59 5.94633 453.701 6.058 453.791 6.192C453.925 6.326 454.036 6.43766 454.126 6.527H453.925L454.528 7.197H452.585C452.763 7.37567 452.92 7.599 453.054 7.867C453.232 8.09033 453.411 8.31366 453.59 8.537H451.111L451.312 8.872H453.188C453.322 9.05066 453.456 9.274 453.59 9.542C453.724 9.76533 453.858 9.98867 453.992 10.212H450.843L451.044 10.547H447.426L448.029 11.887H455.265L455.667 12.892H454.595C454.639 13.0707 454.684 13.2493 454.729 13.428C454.773 13.562 454.818 13.7183 454.863 13.897H454.327L454.528 14.902H457.677C457.766 15.17 457.811 15.3933 457.811 15.572H458.28C458.324 15.7507 458.347 15.9293 458.347 16.108C458.391 16.242 458.414 16.3983 458.414 16.577H458.883C458.927 16.7557 458.95 17.0013 458.95 17.314C458.95 17.448 458.972 17.5373 459.017 17.582H462.836ZM434.361 13.361C433.646 13.361 432.998 13.5397 432.418 13.897H436.304C435.812 13.5397 435.165 13.361 434.361 13.361ZM445.416 18.252C445.416 18.0287 445.393 17.85 445.349 17.716V17.582H441.53C441.53 17.4033 441.507 17.247 441.463 17.113C441.463 16.9343 441.44 16.7557 441.396 16.577H440.927C440.882 16.3983 440.837 16.242 440.793 16.108C440.793 15.9293 440.748 15.7507 440.659 15.572H440.19C440.145 15.3933 440.033 15.17 439.855 14.902H436.706C436.616 14.768 436.527 14.634 436.438 14.5C436.348 14.366 436.237 14.2543 436.103 14.165C435.879 14.3883 435.701 14.634 435.567 14.902H434.629C434.584 14.9913 434.539 15.103 434.495 15.237C434.45 15.3263 434.383 15.438 434.294 15.572H434.093C434.048 15.7507 434.003 15.9293 433.959 16.108C433.914 16.242 433.869 16.3983 433.825 16.577H434.629C434.584 16.7557 434.539 16.9343 434.495 17.113C434.495 17.247 434.495 17.4033 434.495 17.582H435.969V18.252H445.416ZM442.87 18.922C442.87 18.788 442.847 18.6763 442.803 18.587H434.964V18.922H434.428C434.428 19.1007 434.405 19.324 434.361 19.592C434.361 19.8153 434.361 20.0387 434.361 20.262H430.408V21.267H433.155C433.155 21.4457 433.132 21.6243 433.088 21.803C433.088 21.937 433.088 22.0933 433.088 22.272H433.356V23.277H434.093V24.282H432.954V25.287H432.552V26.627H432.887V27.967H433.021V28.637H433.825V29.642H433.624V30.312H436.438C436.482 30.446 436.505 30.6023 436.505 30.781C436.505 30.915 436.505 31.049 436.505 31.183V31.317H432.485L432.686 32.657H433.624L433.825 33.327H436.438C436.661 33.9077 436.951 34.3543 437.309 34.667H436.639C437.219 35.2477 438.001 35.538 438.984 35.538C440.011 35.538 440.815 35.2477 441.396 34.667H438.984C439.296 34.3543 439.564 33.9077 439.788 33.327H443.607L443.808 32.657H444.009L444.21 31.317H442.401V31.183C442.445 31.049 442.468 30.915 442.468 30.781C442.468 30.6023 442.468 30.446 442.468 30.312H441.128V29.642H440.324V28.637H438.984V27.967H442.401V26.627H438.85V25.287H441.195V24.282H441.396V23.277H440.726V22.272H437.912V21.267H440.927V20.262H441.128V18.922H442.87ZM519.972 35.002H530.357C530.312 35.0913 530.29 35.203 530.29 35.337C530.29 35.471 530.267 35.5827 530.223 35.672C530.223 35.806 530.2 35.9177 530.156 36.007H523.992L523.791 36.677H512.267L512.066 37.347H520.307C520.262 37.4363 520.217 37.548 520.173 37.682C520.173 37.816 520.128 37.9277 520.039 38.017H512.736L512.602 38.352H516.488C516.443 38.5307 516.376 38.7093 516.287 38.888C516.197 39.022 516.108 39.1783 516.019 39.357H511.329L511.128 39.692H512.468L512.267 40.027H500.207C500.028 40.2503 499.872 40.4737 499.738 40.697C499.604 40.9203 499.447 41.1437 499.269 41.367H503.289C503.11 41.635 502.931 41.8583 502.753 42.037H494.244L493.239 43.042H512.066C511.798 43.2653 511.53 43.4887 511.262 43.712C510.994 43.9353 510.703 44.1587 510.391 44.382H504.227C504.003 44.5607 503.758 44.7393 503.49 44.918C503.222 45.052 502.954 45.2083 502.686 45.387H492.368C492.189 45.521 491.966 45.655 491.698 45.789C491.474 45.8783 491.251 45.9677 491.028 46.057H495.316C495.048 46.191 494.78 46.325 494.512 46.459C494.244 46.5483 493.976 46.6377 493.708 46.727H502.016C501.033 47.129 499.961 47.464 498.8 47.732H493.105C492.524 47.866 491.921 47.9777 491.296 48.067C490.67 48.201 490.045 48.3127 489.42 48.402H487.343C486.628 48.4913 485.891 48.5583 485.132 48.603C484.372 48.6477 483.613 48.67 482.854 48.67C482.005 48.67 481.179 48.6477 480.375 48.603C479.615 48.5583 478.878 48.4913 478.164 48.402H480.174C479.504 48.3127 478.856 48.201 478.231 48.067C477.65 47.9777 477.069 47.866 476.489 47.732H482.184C481.067 47.464 479.995 47.129 478.968 46.727H470.727C470.459 46.6377 470.191 46.5483 469.923 46.459C469.655 46.325 469.409 46.191 469.186 46.057H464.965C464.741 45.9677 464.54 45.856 464.362 45.722C464.138 45.588 463.915 45.4763 463.692 45.387H474.01C473.697 45.2083 473.407 45.052 473.139 44.918C472.915 44.7393 472.67 44.5607 472.402 44.382H478.566C478.03 44.0247 477.494 43.578 476.958 43.042H458.131C457.729 42.6847 457.394 42.3497 457.126 42.037H465.635L465.032 41.367H461.012C460.833 41.1437 460.677 40.9203 460.543 40.697C460.364 40.4737 460.208 40.2503 460.074 40.027H472.201L472 39.692H470.66L470.459 39.357H475.149C475.059 39.1783 474.97 39.022 474.881 38.888C474.791 38.7093 474.702 38.5307 474.613 38.352H470.794C470.704 38.1733 470.66 38.0617 470.66 38.017H477.963L477.695 37.347H469.521L469.32 36.677H480.844C480.754 36.409 480.71 36.1857 480.71 36.007H486.941C486.896 35.9177 486.874 35.806 486.874 35.672H508.582C509.743 35.672 510.703 35.4487 511.463 35.002H501.145C501.234 34.9127 501.301 34.8457 501.346 34.801C501.435 34.7563 501.524 34.7117 501.614 34.667H497.058C497.147 34.7117 497.236 34.7563 497.326 34.801C497.415 34.8457 497.482 34.9127 497.527 35.002H481.112C481.514 35.1807 482.005 35.337 482.586 35.471C483.166 35.605 483.926 35.672 484.864 35.672H463.089C463.089 35.5827 463.089 35.471 463.089 35.337C463.089 35.203 463.066 35.0913 463.022 35.002H479.437V34.667H467.712C467.712 34.0417 468.047 33.595 468.717 33.327H476.288C476.377 33.2823 476.533 33.26 476.757 33.26H490.224C490.536 33.26 490.76 33.2823 490.894 33.327H501.413L501.547 32.992H496.455C496.499 32.858 496.522 32.724 496.522 32.59C496.522 32.4113 496.522 32.255 496.522 32.121V31.652H495.383C495.293 31.0713 495.092 30.6247 494.78 30.312H494.713L494.378 29.977H489.956C489.241 29.441 488.102 29.173 486.539 29.173H478.164C477.583 29.173 477.159 28.9943 476.891 28.637H482.184L481.983 28.302H481.179C481 28.0787 480.911 27.766 480.911 27.364V26.962H480.777V25.622H481.581V24.617H479.437V23.612H483.055V22.607H483.725V21.267H479.638L479.839 20.597H482.251L482.385 20.262H484.663L484.864 19.927H482.787C482.921 19.793 483.032 19.659 483.122 19.525C483.256 19.391 483.39 19.3017 483.524 19.257L484.127 18.922H483.189L485.601 17.582H485.199L486.405 16.912H486.271L487.477 16.242H487.209L489.688 14.902L490.291 14.567H489.956L490.693 14.165H473.072C472.67 14.165 472.357 14.0757 472.134 13.897H474.412C474.099 13.763 473.876 13.5397 473.742 13.227H471.196C471.106 13.0483 471.017 12.825 470.928 12.557H472.134V12.222H472.469V11.887H471.129V10.882H472V9.542H472.335V8.872H472.067V7.867H471.531V7.532H472.469V6.527H469.99V5.187H472.67V4.852H469.789V3.512H470.124V2.909C470.124 2.55166 470.168 2.306 470.258 2.172H472.603C473.005 1.45733 473.563 1.1 474.278 1.1H508.582C509.386 1.1 509.944 1.45733 510.257 2.172H507.845C507.979 2.35067 508.046 2.59633 508.046 2.909V3.512H507.711V4.852H510.592V5.187H507.912V6.527H510.391V7.532H509.453V7.867H509.989V8.872H510.257V9.542H509.922V10.882H509.051V11.887H510.324V12.222H509.922C509.922 12.2667 509.899 12.3113 509.855 12.356C509.855 12.4007 509.855 12.4677 509.855 12.557H508.649C508.604 12.7357 508.492 12.959 508.314 13.227H510.927C510.882 13.361 510.793 13.495 510.659 13.629C510.569 13.7183 510.48 13.8077 510.391 13.897H508.113C508.023 13.9417 507.934 14.0087 507.845 14.098L507.108 14.567H507.443L506.974 14.902L504.964 16.242H505.232L504.227 16.912H504.361L503.356 17.582H503.825L501.815 18.922H502.753L502.15 19.324V19.525L503.624 19.927H505.701C505.879 19.9717 506.036 20.0163 506.17 20.061C506.348 20.1057 506.527 20.1727 506.706 20.262H504.495C504.629 20.3067 504.763 20.3513 504.897 20.396C505.075 20.4407 505.232 20.5077 505.366 20.597H502.954C503.49 20.7757 504.003 20.999 504.495 21.267H508.582C509.296 21.6243 510.011 22.071 510.726 22.607H510.123L511.329 23.612H507.711C507.845 23.7907 507.979 23.9693 508.113 24.148C508.291 24.282 508.47 24.4383 508.649 24.617H510.793L511.53 25.622H510.726C511.038 26.0687 511.284 26.5153 511.463 26.962H511.597C511.82 27.4533 511.999 27.9 512.133 28.302H512.937L513.071 28.637H507.711C507.8 28.8157 507.867 29.039 507.912 29.307C507.956 29.5303 508.001 29.7537 508.046 29.977H512.401C512.445 30.0663 512.468 30.178 512.468 30.312H512.602C512.646 30.4907 512.669 30.714 512.669 30.982C512.713 31.2053 512.736 31.4287 512.736 31.652H513.875C513.919 31.8307 513.942 32.054 513.942 32.322C513.942 32.5453 513.942 32.7687 513.942 32.992H519.034V33.327H506.237C506.237 33.5503 506.214 33.7737 506.17 33.997C506.17 34.2203 506.17 34.4437 506.17 34.667H520.039C519.994 34.7563 519.972 34.868 519.972 35.002ZM485.333 34.667H487.745C488.147 34.265 488.437 33.8183 488.616 33.327H483.39C483.747 33.3717 484.037 33.5057 484.261 33.729C484.484 33.9077 484.707 34.1087 484.931 34.332L485.333 34.667ZM572.096 32.322V32.657H577.323V33.327H577.054V34.332H563.185V34.667H565.597V35.672H572.968V36.342H569.148V37.682H568.948V38.017H564.525V39.022H571.092V39.357H571.36V40.362H572.03V41.702H559.098V42.707H572.766V43.377H568.21V44.382H567.607V45.052H569.148V45.722H568.143V46.392H570.489L570.287 47.062H573.436C573.347 47.196 573.235 47.33 573.101 47.464C573.012 47.5533 572.9 47.6427 572.766 47.732H574.307C574.084 47.9107 573.771 48 573.369 48H560.238C559.836 48 559.523 47.9107 559.3 47.732H557.759C557.446 47.598 557.222 47.3747 557.088 47.062H553.939L553.738 46.392H551.393V45.722H552.398V45.052H550.857V44.382H551.46V43.377H556.016V42.707H543.889V43.377H538.328V44.382H542.147V45.052H541.209V45.722H544.693V46.392H540.941L540.74 47.062H542.214C542.036 47.3747 541.835 47.598 541.611 47.732H540.003C539.78 47.9107 539.467 48 539.065 48H525.933C525.487 48 525.152 47.9107 524.928 47.732H526.536C526.313 47.598 526.112 47.3747 525.933 47.062H524.392C524.258 46.8387 524.191 46.6153 524.191 46.392H527.943V45.722H524.459V45.052H525.397V44.382H521.578V43.377H527.139V42.707H530.355V41.702H520.037V40.362H523.856V39.357H526.536V39.022H524.66V38.017H521.511V37.682H522.181V36.342H524.325V35.672H525.33V34.667H520.506V34.332H532.901V33.327H517.759V32.657H532.03V32.322H525.062V31.317H529.082V30.982H529.886V30.647H529.551V29.307H522.918V28.302H525.129V27.967H524.526V26.962H524.794V26.627H524.861V25.957H524.928V25.622H524.057V25.287H521.444V24.282H522.315V23.277H520.975V22.272H524.325V20.932H523.588V20.262H518.697V19.927H526.536V19.257H528.412V18.922H510.322V18.587H520.975V18.252H524.794V17.247H517.96V15.907H516.084V14.902H524.124V13.562H524.794V12.557H529.082V12.222H525.397V10.882H528.412V10.212H524.794V9.877H523.521V9.207H521.578V8.537H519.233V7.197H523.454V6.192H526V5.187H524.794V4.517H523.119V4.182H524.057V3.512H523.856V2.909C523.856 2.59633 523.923 2.35067 524.057 2.172H528.345C528.39 2.038 528.457 1.92633 528.546 1.837C528.636 1.703 528.725 1.59133 528.814 1.502H539.132C539.4 1.234 539.78 1.1 540.271 1.1H565.999C566.446 1.1 566.826 1.234 567.138 1.502H577.456C577.546 1.59133 577.635 1.703 577.724 1.837C577.858 1.92633 577.948 2.038 577.992 2.172H569.349C569.439 2.44 569.484 2.68566 569.484 2.909V3.512H569.819V4.182H570.757V4.517H568.948V5.187H568.143V6.192H570.757V7.197H564.458V8.537H571.695V9.207H566.469V9.877H568.613V10.212H567.54V10.882H572.565V12.222H565.196V12.557H570.89V13.562H569.886V14.902H564.525V15.907H562.314V17.247H569.148V18.252H565.329V18.587H554.677V18.922H572.766V19.257H570.89V19.927H563.052V20.262H567.943V20.932H568.679V22.272H565.329V23.277H566.669V24.282H565.799V25.287H568.411V25.622H569.282V25.957H569.216V26.627H569.148V26.962H568.881V27.967H569.484V28.302H567.272V29.307H573.906V30.647H574.24V30.982H573.436V31.317H569.416V32.322H572.096ZM532.834 14.902V15.907H534.71V16.979H545.564V15.907H547.775V14.902H553.135V13.562H554.14V12.557H548.445V12.222H555.815V10.882H550.79V10.212H551.862V9.877H549.718V9.207H554.944V8.537H547.708V7.197H554.006V6.192H551.393V5.187H552.197V4.517H554.006V4.182H553.068V3.512H552.733V2.909C552.733 2.68566 552.778 2.44 552.867 2.172H561.511C561.6 2.038 561.689 1.92633 561.779 1.837C561.868 1.703 561.957 1.59133 562.046 1.502H544.224C544.448 1.68066 544.626 1.904 544.76 2.172H540.472C540.562 2.306 540.606 2.55166 540.606 2.909V3.512H540.807V4.182H539.869V4.517H541.544V5.187H542.75V6.192H540.204V7.197H535.983V8.537H538.328V9.207H540.271V9.877H541.544V10.212H545.162V10.882H542.147V12.222H545.832V12.557H541.544V13.562H540.874V14.902H532.834ZM560.573 33.327V32.657H555.346V32.322H552.666V31.719H541.812V32.322H548.78V32.657H534.509V33.327H549.651V34.332H560.304V33.327H560.573ZM556.218 35.672H548.847V34.667H546.435V34.332H537.256V34.667H542.08V35.672H541.075V36.342H538.931V37.682H538.261V38.017H541.41V39.022H543.286V39.357H540.606V40.362H536.787V41.702H555.28V40.362H554.609V39.357H554.341V39.022H547.775V38.017H552.197V37.682H552.398V36.342H556.218V35.672ZM622.712 47.732C622.4 47.9107 622.065 48 621.707 48H583.45C583.048 48 582.736 47.9107 582.512 47.732H582.11C581.976 47.6427 581.842 47.5533 581.708 47.464C581.619 47.33 581.53 47.196 581.44 47.062H580.904L580.77 46.727H580.636C580.636 46.6377 580.614 46.5483 580.569 46.459C580.569 46.3697 580.569 46.2803 580.569 46.191V44.717H581.574V44.382H581.105V43.042H580.904V42.707H581.373V41.367H581.239V40.027H580.971V39.357H581.239V37.682H582.11V36.677H582.043V36.543C582.043 36.3643 582.043 36.208 582.043 36.074C582.088 35.94 582.133 35.806 582.177 35.672H581.172C581.217 35.538 581.262 35.4263 581.306 35.337C581.351 35.203 581.396 35.0913 581.44 35.002H581.641C581.731 34.8233 581.798 34.7117 581.842 34.667H580.703C580.793 34.5777 580.86 34.4883 580.904 34.399C580.994 34.3097 581.061 34.2427 581.105 34.198L581.641 33.662H582.914L583.584 32.992H582.914L584.187 31.652H583.45L584.12 30.982H585.326L585.996 30.312H587.738L588.676 29.307H588.14L588.81 28.637H588.006L588.341 28.302H590.016L590.284 27.967H588.609L589.614 26.962H589.949L590.284 26.627H588.944L590.217 25.287H591.557L592.562 24.282L593.835 22.942H593.098L593.701 22.272H594.907L596.18 20.932H595.778L597.051 19.592H597.721L598.391 18.922H597.52L597.855 18.587H597.721L598.056 18.252H597.185L597.52 17.917H598.592L599.865 16.577H598.726L599.396 15.907H599.463L600.401 14.902H600.803L601.004 14.701H583.718C583.316 14.701 582.914 14.5447 582.512 14.232H583.048C582.87 14.0533 582.713 13.83 582.579 13.562H582.445C582.356 13.294 582.311 13.0707 582.311 12.892V12.222H582.713V11.552H582.11V10.212H581.239V9.207H581.842V7.867H582.043V7.532H580.1V6.192H581.842V4.852H581.909V3.512H580.904V2.842H584.656C584.656 2.66333 584.701 2.44 584.79 2.172H583.718C583.763 2.038 583.83 1.92633 583.919 1.837C584.009 1.703 584.098 1.59133 584.187 1.502H582.78C583.138 1.234 583.517 1.1 583.919 1.1H620.635C621.127 1.1 621.506 1.234 621.774 1.502H623.248C623.427 1.68066 623.583 1.904 623.717 2.172H624.856C624.946 2.44 624.99 2.66333 624.99 2.842H621.238V3.512H622.243V4.852H622.176V6.192H620.434V7.532H622.377V7.867H622.176V9.207H621.573V10.212H622.444V11.552H623.047V12.222H622.645V12.423C622.645 12.825 622.578 13.2047 622.444 13.562H622.645C622.601 13.696 622.534 13.83 622.444 13.964C622.4 14.0533 622.333 14.1427 622.243 14.232H621.707C621.663 14.3213 621.551 14.4553 621.372 14.634L621.104 14.902H620.702L619.831 15.907H619.764L619.161 16.577H620.3L619.027 17.917H618.022L617.687 18.252H618.558L618.223 18.587H618.357L618.089 18.922H618.96L618.357 19.592H617.687L616.481 20.932H616.883L615.677 22.272H614.471L613.868 22.942H614.605L613.399 24.282L612.461 25.287H611.188L609.982 26.627H611.255L610.987 26.962H610.585L609.714 27.967H611.389L611.054 28.302H609.446L609.111 28.637H609.915L609.312 29.307H609.848L608.91 30.312H607.168L606.565 30.982H605.359L604.756 31.652H605.493L604.287 32.992H604.957L604.354 33.662H603.014L602.478 34.265H620.166C620.658 34.265 621.037 34.399 621.305 34.667H622.444C622.578 34.7563 622.69 34.868 622.779 35.002H622.645C622.735 35.1807 622.824 35.404 622.913 35.672H623.918V36.677H623.985V37.682H623.114V39.357H622.846V40.027H623.114V41.367H623.248V42.707H622.779V43.042H622.98V44.382H623.449V44.717H622.444V46.191C622.444 46.4143 622.422 46.593 622.377 46.727H622.511L622.377 47.062H622.913C622.824 47.196 622.712 47.33 622.578 47.464C622.489 47.5533 622.377 47.6427 622.243 47.732H622.712Z" fill="#BABABA"/>
</svg>
