<svg xmlns="http://www.w3.org/2000/svg" width="100%" height="100%" viewBox="0 0 808 180" fill="none" filter="url(#filter0_bdi_1180_122)" xmlns:v="https://vecta.io/nano"><path d="M134.366 93h-4v4h4v-4zm0-20.61l-1.586-3.672-2.414 1.042v2.63h4zm68.58-29.61l1.585 3.672-1.585-7.672v4zm-45.09 0v-4h-4v4h4zm0 7.29l.606 3.954 3.394-.52V50.07h-4zm-23.49 3.6h-4v4.66l4.606-.706-.606-3.954zm0-23.67v-4h-4v4h4zm94.32 0h4v-4h-4v4zm0 20.61l1.585 3.672 2.415-1.042v-2.63h-4zm-68.58 29.61l-1.586-3.672 1.586 7.672v-4zm45.09 0v4h4v-4h-4zm0-6.3l-.577-3.958-3.423.499v3.46h4zm23.49-3.42h4v-4.624l-4.577.666.577 3.958zm0 22.5v4h4v-4h-4zm-90.32 0V72.39h-8V93h8zm-2.415-16.938l68.58-29.61-3.171-7.345-68.58 29.61 3.171 7.345zm66.995-37.282h-45.09v8h45.09v-8zm-49.09 4v7.29h8v-7.29h-8zm3.394 3.336l-23.49 3.6 1.212 7.908 23.49-3.6-1.212-7.908zm-18.884 7.554V30h-8v23.67h8zm-4-19.67h94.32v-8h-94.32v8zm90.32-4v20.61h8V30h-8zm2.414 16.938l-68.58 29.61 3.171 7.345 68.58-29.61-3.171-7.345zM160.106 84.22h45.09v-8h-45.09v8zm49.09-4v-6.3h-8v6.3h8zm-3.424-2.342l23.49-3.42-1.153-7.917-23.49 3.42 1.153 7.917zm18.914-7.378V93h8V70.5h-8zm4 18.5h-94.32v8h94.32v-8zm8.058-46.22h-4v4h4v-4zm0-12.78v-4h-4v4h4zm107.01 0h4v-4h-4v4zm0 23.22l-.546 3.962 4.546.627v-4.59h-4zm-23.49-3.24h-4v3.486l3.454.476.546-3.963zm0-7.2h4v-4h-4v4zm-46.53 0v-4h-4v4h4zm0 12.33h-4v4h4v-4zm38.25 0h4v-4h-4v4zm0 12.78v4h4v-4h-4zm-38.25 0v-4h-4v4h4zm0 12.33h-4v4h4v-4zm46.53 0v4h4v-4h-4zm0-7.2l-.546-3.962-3.454.476v3.486h4zm23.49-3.24h4v-4.59l-4.546.627.546 3.963zm0 23.22v4h4v-4h-4zm-93.51 0h-4v4h4v-4zm0-50.22h4v-4h-4v4zm-9.5 0V30h-8v12.78h8zm-4-8.78h107.01v-8h-107.01v8zm103.01-4v23.22h8V30h-8zm4.547 19.258l-23.49-3.24-1.093 7.925 23.49 3.24 1.093-7.925zm-20.037.722v-7.2h-8v7.2h8zm-4-11.2h-46.53v8h46.53v-8zm-50.53 4v12.33h8V42.78h-8zm4 16.33h38.25v-8h-38.25v8zm34.25-4v12.78h8V55.11h-8zm4 8.78h-38.25v8h38.25v-8zm-42.25 4v12.33h8V67.89h-8zm4 16.33h46.53v-8h-46.53v8zm50.53-4v-7.2h-8v7.2h8zm-3.453-3.237l23.49-3.24-1.093-7.925-23.49 3.24 1.093 7.925zm18.943-7.203V93h8V69.78h-8zm4 19.22h-93.51v8h93.51v-8zm-89.51 4V42.78h-8V93h8zm-4-54.22h-13.5v8h13.5v-8zm100.67 4h-4v4h4v-4zm0-12.78v-4h-4v4h4zm106.92 0h4v-4h-4v4zm0 24.75l1.245 3.801 2.755-.902V54.75h-4zm-20.61 6.75l-1.245-3.801-11.607 3.801 11.607 3.801 1.245-3.801zm20.61 6.75h4v-2.899l-2.755-.902-1.245 3.801zm0 24.75v4h4v-4h-4zm-93.51 0h-4v4h4v-4zm0-50.22h4v-4h-4v4zm23.49 37.44h-4v4h4v-4zm46.53 0v4h4v-4h-4zm0-4.59h4v-2.618l-2.4-1.048-1.6 3.666zm-17.73-7.74l1.6-3.666-.765-.334h-.835v4zm-28.8 0v-4h-4v4h4zm0-12.78h-4v4h4v-4zm28.8 0v4h.835l.765-.334-1.6-3.666zm17.73-7.74l1.6 3.666 2.4-1.048V47.37h-4zm0-4.59h4v-4h-4v4zm-46.53 0v-4h-4v4h4zm-32.9 0V30h-8v12.78h8zm-4-8.78h106.92v-8h-106.92v8zm102.92-4v24.75h8V30h-8zm2.755 20.949l-20.61 6.75 2.49 7.603 20.61-6.75-2.49-7.603zm-20.61 14.353l20.61 6.75 2.49-7.603-20.61-6.75-2.49 7.603zm17.855 2.949V93h8V68.25h-8zm4 20.75h-93.51v8h93.51v-8zm-89.51 4V42.78h-8V93h8zm-4-54.22h-13.41v8h13.41v-8zm23.49 45.44h46.53v-8h-46.53v8zm50.53-4v-4.59h-8v4.59h8zm-2.4-8.256l-17.73-7.74-3.2 7.332 17.73 7.74 3.2-7.332zm-19.33-8.074h-28.8v8h28.8v-8zm-32.8 4v12.33h8V67.89h-8zm4-8.78h28.8v-8h-28.8v8zm30.4-.334l17.73-7.74-3.2-7.332-17.73 7.74 3.2 7.332zm20.13-11.406v-4.59h-8v4.59h8zm-4-8.59h-46.53v8h46.53v-8zm-50.53 4v12.33h8V42.78h-8zm82.149 36.18h-4v4.727l4.662-.782-.662-3.945zm0-13.95l-.662-3.945-3.338.56v3.385h4zm13.41-2.25l.662 3.945 3.338-.56V62.76h-4zm0-32.76v-4h-4v4h4zm93.51 0h4v-4h-4v4zm0 30.96l.666 3.944 3.334-.563V60.96h-4zm-27.18 4.59l-.666-3.944-8.227 1.389 6.235 5.544 2.658-2.989zM576.573 93v4h10.518l-7.86-6.989L576.573 93zm-32.49 0l-2.661 2.986L542.559 97h1.524v-4zm-25.65-22.86l2.661-2.986-1.431-1.276-1.891.317.661 3.945zm-15.57 2.61l-.661-3.945-3.339.56v3.385h4zm0 20.25v4h4v-4h-4zm-23.49 0h-4v4h4v-4zm0-16.29h4v-4.727l-4.662.782.662 3.945zm23.49-18.09h-4v4.729l4.664-.785-.664-3.945zm46.53-7.83l.664 3.944 3.336-.561V50.79h-4zm0-8.01h4v-4h-4v4zm-46.53 0v-4h-4v4h4zm-32.9 36.18V65.01h-8v13.95h8zm-3.338-10.005l13.41-2.25-1.324-7.89-13.41 2.25 1.324 7.89zm16.748-6.195V30h-8v32.76h8zm-4-28.76h93.51v-8h-93.51v8zm89.51-4v30.96h8V30h-8zm3.334 27.016l-27.18 4.59 1.332 7.888 27.18-4.59-1.332-7.888zm-29.172 11.523l30.87 27.45 5.316-5.978-30.87-27.45-5.316 5.978zM576.573 89h-32.49v8h32.49v-8zm-29.829 1.014l-25.65-22.86-5.322 5.972 25.65 22.86 5.322-5.972zm-28.972-23.819l-15.57 2.61 1.322 7.89 15.57-2.61-1.322-7.89zm-18.909 6.555V93h8V72.75h-8zm4 16.25h-23.49v8h23.49v-8zm-19.49 4V76.71h-8V93h8zm-4.662-20.235l-13.41 2.25 1.324 7.89 13.41-2.25-1.324-7.89zm24.816-10.201l46.53-7.83-1.328-7.889-46.53 7.83 1.328 7.889zm49.866-11.775v-8.01h-8v8.01h8zm-4-12.01h-46.53v8h46.53v-8zm-50.53 4v15.84h8V42.78h-8zM581.033 93l-3.665-1.603-2.45 5.603h6.115v-4zm21.96-50.22l3.665 1.603 2.45-5.603h-6.115v4zm-11.16 0h-4v4h4v-4zm0-12.78v-4h-4v4h4zm62.55 0l3.669-1.593L657.007 26h-2.624v4zm27.36 63v4h6.098l-2.429-5.593L681.743 93zm-24.3 0l-3.669 1.593L654.819 97h2.624v-4zm-6.84-15.75l3.669-1.593-1.045-2.407h-2.624v4zm-38.34 0v-4h-2.624l-1.045 2.407 3.669 1.593zM605.423 93v4h2.624l1.045-2.407L605.423 93zm12.42-28.53l-3.662-1.61-2.467 5.61h6.129v-4zm27.18 0v4h6.129l-2.468-5.61-3.661 1.61zm-9.54-21.69l3.661-1.61-1.051-2.39h-2.61v4zm-8.1 0v-4h-2.611l-1.051 2.39 3.662 1.61zm-42.685 51.823l21.96-50.22-7.33-3.205-21.96 50.22 7.33 3.205zm18.295-55.823h-11.16v8h11.16v-8zm-7.16 4V30h-8v12.78h8zm-4-8.78h62.55v-8h-62.55v8zm58.881-2.407l27.36 63 7.338-3.187-27.36-63-7.338 3.187zM681.743 89h-24.3v8h24.3v-8zm-20.631 2.407l-6.84-15.75-7.338 3.187 6.84 15.75 7.338-3.187zM650.603 73.25h-38.34v8h38.34v-8zm-42.009 2.407l-6.84 15.75 7.338 3.187 6.84-15.75-7.338-3.187zM605.423 89h-24.39v8h24.39v-8zm12.42-20.53h27.18v-8h-27.18v8zm30.841-5.61l-9.54-21.69-7.323 3.221 9.54 21.69 7.323-3.221zm-13.201-24.08h-8.1v8h8.1v-8zm-11.762 2.39l-9.54 21.69 7.323 3.221 9.54-21.69-7.323-3.221zm-451.828 77.206h-4v4h4v-4zm0-3.976v-4h-4v4h4zm33.264 0h4v-4h-4v4zm0 7.224l-.547 3.962 4.547.628v-4.59h-4zm-7.308-1.008h-4v3.486l3.453.476.547-3.962zm0-2.24h4v-4h-4v4zm-14.476 0v-4h-4v4h4zm0 11.648h-4v4h4v-4zm14.476 0v4h4v-4h-4zm0-2.24l-.547-3.962-3.453.476v3.486h4zm7.308-1.008h4v-4.59l-4.547.628.547 3.962zm0 7.224v4h4v-4h-4zm-29.092 0h-4v4h4v-4zm0-15.624h4v-4h-4v4zm-.172 0V114.4h-8v3.976h8zm-4 .024h33.264v-8h-33.264v8zm29.264-4v7.224h8V114.4h-8zm4.546 3.262l-7.308-1.008-1.093 7.924 7.308 1.008 1.093-7.924zm-3.854 2.954v-2.24h-8v2.24h8zm-4-6.24h-14.476v8h14.476v-8zm-18.476 4v11.648h8v-11.648h-8zm4 15.648h14.476v-8h-14.476v8zm18.476-4v-2.24h-8v2.24h8zm-3.454 1.722l7.308-1.008-1.093-7.924-7.308 1.008 1.093 7.924zm2.762-4.97V134h8v-7.224h-8zm4 3.224h-29.092v8h29.092v-8zm-25.092 4v-15.624h-8V134h8zm-4-19.624h-4.172v8h4.172v-8zm31.32 15.256h-4v4.727l4.662-.782-.662-3.945zm0-4.34l-.662-3.945-3.338.56v3.385h4zm4.172-.7l.662 3.945 3.338-.56v-3.385h-4zm0-10.192v-4h-4v4h4zm29.092 0h4v-4h-4v4zm0 9.632l.666 3.944 3.334-.563v-3.381h-4zm-8.456 1.428l-.666-3.944-8.227 1.389 6.235 5.544 2.658-2.989zm9.604 8.54v4h10.518l-7.86-6.989-2.658 2.989zm-10.108 0l-2.662 2.986 1.138 1.014h1.524v-4zm-7.98-7.112l2.661-2.986-1.431-1.276-1.892.317.662 3.945zm-4.844.812l-.662-3.945-3.338.56v3.385h4zm0 6.3v4h4v-4h-4zm-7.308 0h-4v4h4v-4zm0-5.068h4v-4.727l-4.662.782.662 3.945zm7.308-5.628h-4v4.729l4.664-.784-.664-3.945zm14.476-2.436l.664 3.945 3.336-.562v-3.383h-4zm0-2.492h4v-4h-4v4zm-14.476 0v-4h-4v4h4zm-7.48 11.256v-4.34h-8v4.34h8zm-3.338-.395l4.172-.7-1.324-7.89-4.172.7 1.324 7.89zm7.51-4.645V114.4h-8v10.192h8zm-4-6.192h29.092v-8h-29.092v8zm25.092-4v9.632h8V114.4h-8zm3.334 5.688l-8.456 1.428 1.332 7.888 8.456-1.428-1.332-7.888zm-10.448 8.361l9.604 8.54 5.316-5.978-9.604-8.54-5.316 5.978zM241.797 130h-10.108v8h10.108v-8zm-7.447 1.014l-7.98-7.112-5.323 5.972 7.98 7.112 5.323-5.972zm-11.303-8.071l-4.844.812 1.323 7.89 4.844-.812-1.323-7.89zm-8.182 4.757v6.3h8v-6.3h-8zm4 2.3h-7.308v8h7.308v-8zm-3.308 4v-5.068h-8V134h8zm-4.662-9.013l-4.172.7 1.324 7.89 4.172-.7-1.324-7.89zm8.634 2.262l14.476-2.436-1.328-7.89-14.476 2.436 1.328 7.89zm17.812-6.381v-2.492h-8v2.492h8zm-4-6.492h-14.476v8h14.476v-8zm-18.476 4v4.928h8v-4.928h-8zm28.039 0h-4v4h4v-4zm0-3.976v-4h-4v4h4zm33.292 0h4v-4h-4v4zm0 7.224l-.546 3.962 4.546.628v-4.59h-4zm-7.308-1.008h-4v3.486l3.454.476.546-3.962zm0-2.24h4v-4h-4v4zm-14.476 0v-4h-4v4h4zm0 3.836h-4v4h4v-4zm11.9 0h4v-4h-4v4zm0 3.976v4h4v-4h-4zm-11.9 0v-4h-4v4h4zm0 3.836h-4v4h4v-4zm14.476 0v4h4v-4h-4zm0-2.24l-.546-3.962-3.454.476v3.486h4zm7.308-1.008h4v-4.59l-4.546.628.546 3.962zm0 7.224v4h4v-4h-4zm-29.092 0h-4v4h4v-4zm0-15.624h4v-4h-4v4zm-.2 0V114.4h-8v3.976h8zm-4 .024h33.292v-8h-33.292v8zm29.292-4v7.224h8V114.4h-8zm4.547 3.262l-7.308-1.008-1.093 7.924 7.308 1.008 1.093-7.924zm-3.855 2.954v-2.24h-8v2.24h8zm-4-6.24h-14.476v8h14.476v-8zm-18.476 4v3.836h8v-3.836h-8zm4 7.836h11.9v-8h-11.9v8zm7.9-4v3.976h8v-3.976h-8zm4-.024h-11.9v8h11.9v-8zm-15.9 4v3.836h8v-3.836h-8zm4 7.836h14.476v-8h-14.476v8zm18.476-4v-2.24h-8v2.24h8zm-3.453 1.722l7.308-1.008-1.093-7.924-7.308 1.008 1.093 7.924zm2.761-4.97V134h8v-7.224h-8zm4 3.224h-29.092v8h29.092v-8zm-25.092 4v-15.624h-8V134h8zm-4-19.624h-4.2v8h4.2v-8zm31.6 19.624l-3.665-1.603-2.45 5.603h6.115v-4zm6.832-15.624l3.665 1.603 2.45-5.603h-6.115v4zm-3.472 0h-4v4h4v-4zm0-3.976v-4h-4v4h4zm19.46 0l3.669-1.593-1.045-2.407h-2.624v4zm8.512 19.6v4h6.098l-2.429-5.593-3.669 1.593zm-7.56 0l-3.669 1.593 1.045 2.407h2.624v-4zm-2.128-4.9l3.669-1.593-1.045-2.407h-2.624v4zm-11.928 0v-4h-2.624l-1.045 2.407 3.669 1.593zm-2.128 4.9v4h2.624l1.045-2.407-3.669-1.593zm3.864-8.876l-3.662-1.61-2.467 5.61h6.129v-4zm8.456 0v4h6.129l-2.468-5.61-3.661 1.61zm-2.968-6.748l3.661-1.61-1.051-2.39h-2.61v4zm-2.52 0v-4h-2.611l-1.051 2.39 3.662 1.61zm-10.755 17.227l6.832-15.624-7.33-3.206-6.832 15.624 7.33 3.206zm3.167-21.227h-3.472v8h3.472v-8zm.528 4V114.4h-8v3.976h8zm-4 .024h19.46v-8h-19.46v8zm15.791-2.407l8.512 19.6 7.338-3.186-8.512-19.6-7.338 3.186zM310.036 130h-7.56v8h7.56v-8zm-3.891 2.407l-2.128-4.9-7.338 3.186 2.128 4.9 7.338-3.186zm-5.797-7.307H288.42v8h11.928v-8zm-15.597 2.407l-2.128 4.9 7.338 3.186 2.128-4.9-7.338-3.186zm1.541 2.493h-7.588v8h7.588v-8zm3.864-.876h8.456v-8h-8.456v8zm12.117-5.61l-2.968-6.748-7.323 3.22 2.968 6.748 7.323-3.22zm-6.629-9.138h-2.52v8h2.52v-8zm-6.182 2.39l-2.968 6.748 7.323 3.22 2.968-6.748-7.323-3.22zm18.567 5.474h-4v4.59l4.547-.628-.547-3.962zm0-7.84v-4h-4v4h4zm31.332 0h4v-4h-4v4zm0 7.84l-.546 3.962 4.546.628v-4.59h-4zm-7.308-1.008h-4v3.486l3.454.476.546-3.962zm0-2.856h4v-4h-4v4zm-4.704 0v-4h-4v4h4zm0 15.624v4h4v-4h-4zm-7.308 0h-4v4h4v-4zm0-15.624h4v-4h-4v4zm-4.704 0v-4h-4v4h4zm0 2.856l.547 3.962 3.453-.476v-3.486h-4zm-3.308 1.008v-7.84h-8v7.84h8zm-4-3.84h31.332v-8h-31.332v8zm27.332-4v7.84h8v-7.84h-8zm4.547 3.878l-7.308-1.008-1.093 7.924 7.308 1.008 1.093-7.924zm-3.855 2.954v-2.856h-8v2.856h8zm-4-6.856h-4.704v8h4.704v-8zm-8.704 4V134h8v-15.624h-8zm4 11.624h-7.308v8h7.308v-8zm-3.308 4v-15.624h-8V134h8zm-4-19.624h-4.704v8h4.704v-8zm-8.704 4v2.856h8v-2.856h-8zm3.454-1.106l-7.308 1.008 1.093 7.924 7.308-1.008-1.093-7.924zm25.402 1.106h-4v4h4v-4zm0-3.976v-4h-4v4h4zm11.48 0h4v-4h-4v4zm0 19.6v4h4v-4h-4zm-7.308 0h-4v4h4v-4zm0-15.624h4v-4h-4v4zm-.172 0V114.4h-8v3.976h8zm-4 .024h11.48v-8h-11.48v8zm7.48-4V134h8v-19.6h-8zm4 15.6h-7.308v8h7.308v-8zm-3.308 4v-15.624h-8V134h8zm-4-19.624h-4.172v8h4.172v-8zm9.822 4h-4v4h4v-4zm0-3.976v-4h-4v4h4zm9.52 0l3.409-2.091-1.17-1.909h-2.239v4zm7.952 12.964l-3.41 2.091 3.422 5.579 3.404-5.589-3.416-2.081zm7.896-12.964v-4h-2.247l-1.169 1.919 3.416 2.081zm7.7 0l3.404 2.101 3.765-6.101h-7.169v4zM375.159 134v4h2.232l1.172-1.899-3.404-2.101zm-7.112 0l-3.4 2.108 1.174 1.892h2.226v-4zm-9.688-15.624l3.399-2.108-1.173-1.892h-2.226v4zm-.172 0V114.4h-8v3.976h8zm-4 .024h9.52v-8h-9.52v8zm6.11-1.909l7.952 12.964 6.819-4.182-7.952-12.964-6.819 4.182zm14.778 12.954l7.896-12.964-6.832-4.162-7.896 12.964 6.832 4.162zm4.48-11.045h7.7v-8h-7.7v8zm4.296-6.101l-12.096 19.6 6.808 4.202 12.096-19.6-6.808-4.202zM375.159 130h-7.112v8h7.112v-8zm-3.713 1.892l-9.688-15.624-6.799 4.216 9.688 15.624 6.799-4.216zm-13.087-17.516h-4.172v8h4.172v-8zm28.346 4h-4v4h4v-4zm0-3.976v-4h-4v4h4zm33.292 0h4v-4h-4v4zm0 7.224l-.546 3.962 4.546.628v-4.59h-4zm-7.308-1.008h-4v3.486l3.454.476.546-3.962zm0-2.24h4v-4h-4v4zm-14.476 0v-4h-4v4h4zm0 3.836h-4v4h4v-4zm11.9 0h4v-4h-4v4zm0 3.976v4h4v-4h-4zm-11.9 0v-4h-4v4h4zm0 3.836h-4v4h4v-4zm14.476 0v4h4v-4h-4zm0-2.24l-.546-3.962-3.454.476v3.486h4zm7.308-1.008h4v-4.59l-4.546.628.546 3.962zm0 7.224v4h4v-4h-4zm-29.092 0h-4v4h4v-4zm0-15.624h4v-4h-4v4zm-.2 0V114.4h-8v3.976h8zm-4 .024h33.292v-8h-33.292v8zm29.292-4v7.224h8V114.4h-8zm4.547 3.262l-7.308-1.008-1.093 7.924 7.308 1.008 1.093-7.924zm-3.855 2.954v-2.24h-8v2.24h8zm-4-6.24h-14.476v8h14.476v-8zm-18.476 4v3.836h8v-3.836h-8zm4 7.836h11.9v-8h-11.9v8zm7.9-4v3.976h8v-3.976h-8zm4-.024h-11.9v8h11.9v-8zm-15.9 4v3.836h8v-3.836h-8zm4 7.836h14.476v-8h-14.476v8zm18.476-4v-2.24h-8v2.24h8zm-3.453 1.722l7.308-1.008-1.093-7.924-7.308 1.008 1.093 7.924zm2.761-4.97V134h8v-7.224h-8zm4 3.224h-29.092v8h29.092v-8zm-25.092 4v-15.624h-8V134h8zm-4-19.624h-4.2v8h4.2v-8zM433.716 134l-3.665-1.603-2.45 5.603h6.115v-4zm6.832-15.624l3.664 1.603 2.45-5.603h-6.114v4zm-3.472 0h-4v4h4v-4zm0-3.976v-4h-4v4h4zm19.46 0l3.668-1.593-1.045-2.407h-2.623v4zm8.512 19.6v4h6.098l-2.43-5.593-3.668 1.593zm-7.56 0l-3.669 1.593 1.045 2.407h2.624v-4zm-2.128-4.9l3.669-1.593-1.046-2.407h-2.623v4zm-11.928 0v-4h-2.624l-1.045 2.407 3.669 1.593zm-2.128 4.9v4h2.623l1.046-2.407-3.669-1.593zm3.864-8.876l-3.662-1.61-2.468 5.61h6.13v-4zm8.456 0v4h6.129l-2.468-5.61-3.661 1.61zm-2.968-6.748l3.661-1.61-1.051-2.39h-2.61v4zm-2.52 0v-4h-2.611l-1.051 2.39 3.662 1.61zm-10.756 17.227l6.832-15.624-7.329-3.206-6.832 15.624 7.329 3.206zm3.168-21.227h-3.472v8h3.472v-8zm.528 4V114.4h-8v3.976h8zm-4 .024h19.46v-8h-19.46v8zm15.791-2.407l8.512 19.6 7.337-3.186-8.512-19.6-7.337 3.186zM465.048 130h-7.56v8h7.56v-8zm-3.892 2.407l-2.127-4.9-7.338 3.186 2.128 4.9 7.337-3.186zm-5.796-7.307h-11.928v8h11.928v-8zm-15.597 2.407l-2.128 4.9 7.338 3.186 2.127-4.9-7.337-3.186zm1.541 2.493h-7.588v8h7.588v-8zm3.864-.876h8.456v-8h-8.456v8zm12.117-5.61l-2.968-6.748-7.323 3.22 2.968 6.748 7.323-3.22zm-6.629-9.138h-2.52v8h2.52v-8zm-6.182 2.39l-2.968 6.748 7.323 3.22 2.968-6.748-7.323-3.22zm18.274 1.61h-4v4h4v-4zm0-3.976v-4h-4v4h4zm33.264 0h4v-4h-4v4zm0 6.944l-.547 3.962 4.547.628v-4.59h-4zm-7.308-1.008h-4v3.486l3.454.476.546-3.962zm0-1.96h4v-4h-4v4zm-14.476 0v-4h-4v4h4zm0 11.648h-4v4h4v-4zm14.476 0v4h4v-4h-4zm0-2.66h4v-4h-4v4zm-5.908 0h-4v4h4v-4zm0-3.976v-4h-4v4h4zm13.216 0h4v-4h-4v4zm0 10.612v4h4v-4h-4zm-29.092 0h-4v4h4v-4zm0-15.624h4v-4h-4v4zm-.172 0V114.4h-8v3.976h8zm-4 .024h33.264v-8h-33.264v8zm29.264-4v6.944h8V114.4h-8zm4.547 2.982l-7.308-1.008-1.093 7.924 7.307 1.008 1.094-7.924zm-3.855 2.954v-1.96h-8v1.96h8zm-4-5.96h-14.476v8h14.476v-8zm-18.476 4v11.648h8v-11.648h-8zm4 15.648h14.476v-8h-14.476v8zm18.476-4v-2.66h-8v2.66h8zm-4-6.66h-5.908v8h5.908v-8zm-1.908 4v-3.976h-8v3.976h8zm-4 .024h13.216v-8h-13.216v8zm9.216-4V134h8v-10.612h-8zm4 6.612H466.92v8h29.092v-8zm-25.092 4v-15.624h-8V134h8zm-4-19.624h-4.172v8h4.172v-8zm31.894 4h-4v4h4v-4zm0-3.976v-4h-4v4h4zm33.292 0h4v-4h-4v4zm0 7.224l-.546 3.962 4.546.628v-4.59h-4zm-7.308-1.008h-4v3.486l3.454.476.546-3.962zm0-2.24h4v-4h-4v4zm-14.476 0v-4h-4v4h4zm0 3.836h-4v4h4v-4zm11.9 0h4v-4h-4v4zm0 3.976v4h4v-4h-4zm-11.9 0v-4h-4v4h4zm0 3.836h-4v4h4v-4zm14.476 0v4h4v-4h-4zm0-2.24l-.546-3.962-3.454.476v3.486h4zm7.308-1.008h4v-4.59l-4.546.628.546 3.962zm0 7.224v4h4v-4h-4zm-29.092 0h-4v4h4v-4zm0-15.624h4v-4h-4v4zm-.2 0V114.4h-8v3.976h8zm-4 .024h33.292v-8h-33.292v8zm29.292-4v7.224h8V114.4h-8zm4.547 3.262l-7.308-1.008-1.093 7.924 7.308 1.008 1.093-7.924zm-3.855 2.954v-2.24h-8v2.24h8zm-4-6.24h-14.476v8h14.476v-8zm-18.476 4v3.836h8v-3.836h-8zm4 7.836h11.9v-8h-11.9v8zm7.9-4v3.976h8v-3.976h-8zm4-.024h-11.9v8h11.9v-8zm-15.9 4v3.836h8v-3.836h-8zm4 7.836h14.476v-8h-14.476v8zm18.476-4v-2.24h-8v2.24h8zm-3.453 1.722l7.308-1.008-1.093-7.924-7.308 1.008 1.093 7.924zm2.761-4.97V134h8v-7.224h-8zm4 3.224h-29.092v8h29.092v-8zm-25.092 4v-15.624h-8V134h8zm-4-19.624h-4.2v8h4.2v-8zM537.134 134h-4v4h4v-4zm0-20.384l1.952-3.491-5.952-3.328v6.819h4zm21.784 12.18l-1.952 3.491 5.952 3.328v-6.819h-4zm0-7.42h4v-4h-4v4zm-2.38 0h-4v4h4v-4zm0-3.976v-4h-4v4h4zm9.688 0h4v-4h-4v4zm0 19.6v4h4v-4h-4zm-6.188 0l-1.993 3.468.926.532h1.067v-4zm-15.596-8.96l1.993-3.468-5.993-3.443v6.911h4zm0 4.984h-4v4h4v-4zm2.38 0h4v-4h-4v4zm0 3.976v4h4v-4h-4zm-5.688 0v-20.384h-8V134h8zm-5.952-16.893l21.784 12.18 3.904-6.982-21.784-12.18-3.904 6.982zm27.736 8.689v-7.42h-8v7.42h8zm-4-11.42h-2.38v8h2.38v-8zm1.62 4V114.4h-8v3.976h8zm-4 .024h9.688v-8h-9.688v8zm5.688-4V134h8v-19.6h-8zm4 15.6h-6.188v8h6.188v-8zm-4.195.532l-15.596-8.96-3.986 6.936 15.596 8.96 3.986-6.936zm-21.589-5.492v4.984h8v-4.984h-8zm4 8.984h2.38v-8h-2.38v8zm-1.62-4V134h8v-3.976h-8zm4-.024h-9.688v8h9.688v-8zm22.211-11.624h-4v4h4v-4zm0-3.976v-4h-4v4h4zm33.264 0h4v-4h-4v4zm0 7.224l-.546 3.962 4.546.628v-4.59h-4zm-7.308-1.008h-4v3.486l3.454.476.546-3.962zm0-2.24h4v-4h-4v4zm-14.476 0v-4h-4v4h4zm0 11.648h-4v4h4v-4zm14.476 0v4h4v-4h-4zm0-2.24l-.546-3.962-3.454.476v3.486h4zm7.308-1.008h4v-4.59l-4.546.628.546 3.962zm0 7.224v4h4v-4h-4zm-29.092 0h-4v4h4v-4zm0-15.624h4v-4h-4v4zm-.172 0V114.4h-8v3.976h8zm-4 .024h33.264v-8h-33.264v8zm29.264-4v7.224h8V114.4h-8zm4.547 3.262l-7.308-1.008-1.093 7.924 7.308 1.008 1.093-7.924zm-3.855 2.954v-2.24h-8v2.24h8zm-4-6.24h-14.476v8h14.476v-8zm-18.476 4v11.648h8v-11.648h-8zm4 15.648h14.476v-8h-14.476v8zm18.476-4v-2.24h-8v2.24h8zm-3.453 1.722l7.308-1.008-1.093-7.924-7.308 1.008 1.093 7.924zm2.761-4.97V134h8v-7.224h-8zm4 3.224h-29.092v8h29.092v-8zm-25.092 4v-15.624h-8V134h8zm-4-19.624h-4.172v8h4.172v-8zm31.04 4h-4v4h4v-4zm0-3.976v-4h-4v4h4zm9.156 0l2.908-2.747-1.184-1.253h-1.724v4zm7.7 8.148l-2.907 2.747 3.055 3.233 2.892-3.379-3.04-2.601zm6.972-8.148v-4h-1.841l-1.198 1.399 3.039 2.601zm8.596 0l3.04 2.6 5.646-6.6h-8.686v4zm-11.928 13.944l-3.039-2.6-.961 1.123v1.477h4zm0 5.656v4h4v-4h-4zm-7.308 0h-4v4h4v-4zm0-6.02h4v-1.591l-1.092-1.156-2.908 2.747zm-9.072-9.604l2.908-2.747-1.184-1.253h-1.724v4zm-.116 0V114.4h-8v3.976h8zm-4 .024h9.156v-8h-9.156v8zm6.249-1.253l7.7 8.148 5.815-5.494-7.7-8.148-5.815 5.494zm13.647 8.002l6.972-8.148-6.079-5.202-6.972 8.148 6.079 5.202zm3.932-6.749h8.596v-8h-8.596v8zm5.557-6.6l-11.928 13.944 6.079 5.2L639.709 117l-6.079-5.2zm-12.889 16.544V134h8v-5.656h-8zm4 1.656h-7.308v8h7.308v-8zm-3.308 4v-6.02h-8V134h8zm-1.092-8.767l-9.072-9.604-5.815 5.494 9.072 9.604 5.815-5.494zm-11.98-10.857h-4.116v8h4.116v-8z" fill="#544e52"/><path d="M134.366 93V72.39l68.58-29.61h-45.09v7.29l-23.49 3.6V30h94.32v20.61l-68.58 29.61h45.09v-6.3l23.49-3.42V93h-94.32zm102.378-50.22V30h107.01v23.22l-23.49-3.24v-7.2h-46.53v12.33h38.25v12.78h-38.25v12.33h46.53v-7.2l23.49-3.24V93h-93.51V42.78h-13.5zm114.17 0V30h106.92v24.75l-20.61 6.75 20.61 6.75V93h-93.51V42.78h-13.41zm36.9 37.44h46.53v-4.59l-17.73-7.74h-28.8v12.33zm0-25.11h28.8l17.73-7.74v-4.59h-46.53v12.33zm78.149 23.85V65.01l13.41-2.25V30h93.51v30.96l-27.18 4.59L576.573 93h-32.49l-25.65-22.86-15.57 2.61V93h-23.49V76.71l-13.41 2.25zm36.9-20.34l46.53-7.83v-8.01h-46.53v15.84zM581.033 93l21.96-50.22h-11.16V30h62.55l27.36 63h-24.3l-6.84-15.75h-38.34L605.423 93h-24.39zm36.81-28.53h27.18l-9.54-21.69h-8.1l-9.54 21.69zm-445.95 53.906V114.4h33.264v7.224l-7.308-1.008v-2.24h-14.476v11.648h14.476v-2.24l7.308-1.008V134h-29.092v-15.624h-4.172zm35.492 11.256v-4.34l4.172-.7V114.4h29.092v9.632l-8.456 1.428 9.604 8.54h-10.108l-7.98-7.112-4.844.812v6.3h-7.308v-5.068l-4.172.7zm11.48-6.328l14.476-2.436v-2.492h-14.476v4.928zm24.039-4.928V114.4h33.292v7.224l-7.308-1.008v-2.24h-14.476v3.836h11.9v3.976h-11.9v3.836h14.476v-2.24l7.308-1.008V134h-29.092v-15.624h-4.2zm35.8 15.624l6.832-15.624h-3.472V114.4h19.46l8.512 19.6h-7.56l-2.128-4.9H288.42l-2.128 4.9h-7.588zm11.452-8.876h8.456l-2.968-6.748h-2.52l-2.968 6.748zm17.873-2.884v-7.84h31.332v7.84l-7.308-1.008v-2.856h-4.704V134h-7.308v-15.624h-4.704v2.856l-7.308 1.008zm32.164-3.864V114.4h11.48V134h-7.308v-15.624h-4.172zm13.994 0V114.4h9.52l7.952 12.964 7.896-12.964h7.7L375.159 134h-7.112l-9.688-15.624h-4.172zm32.518 0V114.4h33.292v7.224l-7.308-1.008v-2.24h-14.476v3.836h11.9v3.976h-11.9v3.836h14.476v-2.24l7.308-1.008V134h-29.092v-15.624h-4.2zM433.716 134l6.832-15.624h-3.472V114.4h19.46l8.512 19.6h-7.56l-2.128-4.9h-11.928l-2.128 4.9h-7.588zm11.452-8.876h8.456l-2.968-6.748h-2.52l-2.968 6.748zm17.58-6.748V114.4h33.264v6.944l-7.308-1.008v-1.96h-14.476v11.648h14.476v-2.66h-5.908v-3.976h13.216V134H466.92v-15.624h-4.172zm36.066 0V114.4h33.292v7.224l-7.308-1.008v-2.24h-14.476v3.836h11.9v3.976h-11.9v3.836h14.476v-2.24l7.308-1.008V134h-29.092v-15.624h-4.2zM537.134 134v-20.384l21.784 12.18v-7.42h-2.38V114.4h9.688V134h-6.188l-15.596-8.96v4.984h2.38V134h-9.688zm31.899-15.624V114.4h33.264v7.224l-7.308-1.008v-2.24h-14.476v11.648h14.476v-2.24l7.308-1.008V134h-29.092v-15.624h-4.172zm35.212 0V114.4h9.156l7.7 8.148 6.972-8.148h8.596l-11.928 13.944V134h-7.308v-6.02l-9.072-9.604h-4.116z" fill="#dbdbdb"/></svg>